<?xml version="1.0" standalone="no"?>
<!DOCTYPE svg PUBLIC "-//W3C//DTD SVG 20010904//EN"
 "http://www.w3.org/TR/2001/REC-SVG-20010904/DTD/svg10.dtd">
<svg version="1.0" xmlns="http://www.w3.org/2000/svg"
 width="1024.000000pt" height="768.000000pt" viewBox="0 0 1024.000000 768.000000"
 preserveAspectRatio="xMidYMid meet">

<g transform="translate(0.000000,768.000000) scale(0.100000,-0.100000)"
fill="#000000" stroke="none">
<path d="M2590 6810 c0 -23 59 -67 104 -79 59 -14 3683 -16 3736 -1 20 5 51
23 70 39 l35 30 -267 1 -268 0 0 -25 c0 -23 -3 -25 -50 -25 -49 0 -55 5 -51
38 3 21 -26 13 -43 -13 -14 -21 -24 -25 -66 -25 -47 0 -71 12 -50 25 17 10 11
25 -10 25 -12 0 -17 -5 -14 -13 7 -19 -20 -39 -48 -35 -15 2 -24 11 -26 24 -3
22 -7 22 -250 27 -393 8 -2165 -1 -2408 -13 -185 -8 -233 -8 -290 4 -38 8 -77
18 -86 21 -11 5 -18 2 -18 -5z"/>
<path d="M6720 6770 l0 -30 455 0 c296 0 455 3 456 10 6 48 40 45 -453 48
l-458 3 0 -31z"/>
<path d="M1466 6652 c-9 -9 -7 -1662 2 -1662 5 0 19 11 32 25 35 38 176 137
252 179 78 43 276 112 368 128 45 8 344 10 995 9 930 -1 1226 6 1320 33 252
70 431 187 567 370 102 137 99 124 96 373 l-3 218 -331 1 -332 1 14 -33 c20
-47 18 -66 -12 -109 -35 -52 -18 -68 35 -31 105 73 216 73 280 1 37 -42 47
-91 32 -151 -10 -40 -10 -49 5 -65 38 -42 -17 -162 -99 -213 -85 -52 -168 -47
-250 16 l-38 29 -30 -25 c-37 -31 -77 -33 -113 -5 l-26 21 -31 -26 c-40 -34
-85 -34 -134 0 -36 24 -39 25 -76 10 -47 -19 -110 -21 -127 -4 -9 9 -15 8 -26
-7 -11 -16 -29 -20 -89 -23 -66 -4 -77 -2 -96 17 -12 12 -21 32 -21 46 0 25
88 273 116 328 9 16 13 31 10 34 -2 3 -37 -12 -76 -33 l-72 -39 8 -40 c16 -81
7 -145 -32 -223 -75 -148 -203 -217 -310 -166 -19 9 -39 25 -45 35 -5 11 -15
19 -21 19 -5 0 -37 -25 -70 -55 -32 -30 -67 -56 -76 -56 -38 -3 -58 4 -82 26
-17 16 -30 21 -40 15 -15 -8 -75 -14 -117 -11 -12 0 -34 12 -50 25 l-29 24
-72 -35 c-68 -34 -72 -35 -96 -20 -13 9 -27 26 -31 37 -7 22 -25 27 -25 7 0
-33 -37 -48 -129 -54 -78 -5 -91 -4 -97 11 -8 20 -28 21 -43 2 -7 -8 -24 -17
-39 -21 -38 -9 -278 -109 -402 -167 -123 -58 -160 -67 -179 -44 -31 38 34 98
243 223 147 89 199 142 259 265 26 53 47 100 47 103 0 3 -17 3 -38 -1 -108
-17 -188 98 -137 197 34 65 80 99 195 142 74 28 153 73 212 120 l40 32 49 -55
c89 -98 87 -84 35 -207 -48 -113 -54 -135 -34 -115 21 21 73 14 99 -14 36 -38
56 -47 80 -34 27 15 60 6 100 -27 l32 -27 40 23 c26 15 65 26 109 30 l68 6 38
75 c29 59 45 79 77 97 22 13 48 23 58 23 27 0 63 -45 77 -98 18 -66 16 -65 63
-35 23 14 62 28 87 31 44 5 135 61 268 166 l42 34 -97 -2 c-54 -1 -149 2 -211
6 -142 9 -459 47 -490 59 -13 5 -40 9 -60 9 -52 0 -82 10 -82 26 0 12 32 18
96 17 394 -7 761 -16 766 -19 4 -3 290 -4 635 -3 346 1 665 2 711 2 98 -1 94
-6 90 137 l-3 95 -1812 2 c-996 0 -1814 -2 -1817 -5z m3487 -454 c79 -42 52
-158 -37 -158 -88 0 -114 117 -36 157 31 16 46 16 73 1z"/>
<path d="M4903 6173 c9 -2 25 -2 35 0 9 3 1 5 -18 5 -19 0 -27 -2 -17 -5z"/>
<path d="M4860 6125 c0 -19 5 -35 10 -35 6 0 10 16 10 35 0 19 -4 35 -10 35
-5 0 -10 -16 -10 -35z"/>
<path d="M4910 6140 c0 -5 5 -10 10 -10 6 0 10 5 10 10 0 6 -4 10 -10 10 -5 0
-10 -4 -10 -10z"/>
<path d="M4957 6128 c-9 -31 -9 -38 2 -38 12 0 20 35 11 50 -5 8 -9 4 -13 -12z"/>
<path d="M4902 6090 c-9 -15 -8 -19 5 -24 23 -9 34 6 19 26 -11 15 -13 15 -24
-2z"/>
<path d="M8658 6462 c-18 -16 -42 -35 -54 -43 -11 -8 -50 -39 -85 -71 -35 -31
-75 -65 -89 -77 -14 -11 -21 -20 -17 -21 5 0 32 19 62 43 29 23 77 61 107 84
56 45 127 113 115 113 -3 0 -21 -13 -39 -28z"/>
<path d="M8668 6395 c-15 -14 -31 -25 -37 -25 -5 0 -11 -3 -13 -7 -3 -7 -55
-50 -145 -121 -22 -17 -29 -32 -15 -32 18 0 252 189 252 204 0 12 -16 5 -42
-19z"/>
<path d="M2435 6370 c-3 -5 1 -10 10 -10 9 0 13 5 10 10 -3 6 -8 10 -10 10 -2
0 -7 -4 -10 -10z"/>
<path d="M2395 6340 c-3 -6 1 -7 9 -4 18 7 21 14 7 14 -6 0 -13 -4 -16 -10z"/>
<path d="M5610 6331 c-14 -28 -13 -47 6 -66 12 -12 19 -13 30 -4 19 16 18 30
-2 22 -9 -3 -20 0 -25 8 -12 19 -11 25 7 43 8 9 11 16 5 16 -6 0 -15 -9 -21
-19z"/>
<path d="M6133 6343 c-18 -7 -16 -23 4 -45 15 -17 15 -18 0 -18 -10 0 -17 -4
-17 -9 0 -15 32 -22 47 -10 10 9 17 9 24 2 20 -20 49 -3 49 28 0 32 -16 47
-33 30 -8 -8 -7 -11 4 -11 10 -1 9 -4 -5 -15 -17 -13 -22 -12 -45 11 -21 21
-23 27 -11 35 16 9 4 11 -17 2z"/>
<path d="M6666 6335 c-9 -24 -8 -63 3 -69 11 -7 21 55 11 73 -6 10 -8 10 -14
-4z"/>
<path d="M2491 6323 c7 -12 15 -20 18 -17 3 2 -3 12 -13 22 -17 16 -18 16 -5
-5z"/>
<path d="M5820 6302 c0 -23 4 -42 9 -42 6 0 7 17 4 38 -8 51 -13 53 -13 4z"/>
<path d="M6326 6317 c-9 -33 -7 -57 4 -57 6 0 10 9 10 20 0 11 5 20 10 20 6 0
10 -8 10 -19 0 -14 6 -17 25 -13 15 2 25 0 25 -7 0 -6 5 -11 11 -11 6 0 8 9 4
20 -4 11 -2 20 4 20 14 0 14 10 1 30 -9 13 -14 11 -35 -13 -22 -25 -25 -26
-25 -8 0 11 -9 25 -19 30 -15 9 -20 7 -25 -12z"/>
<path d="M6466 6331 c-4 -7 -5 -15 -2 -18 9 -9 19 4 14 18 -4 11 -6 11 -12 0z"/>
<path d="M4021 6301 c17 -23 20 -38 16 -65 -7 -42 1 -44 58 -20 50 20 88 10
123 -32 25 -30 31 -33 41 -20 9 10 10 24 3 49 -7 24 -6 45 4 73 8 21 14 39 14
40 0 0 -63 2 -141 3 l-140 2 22 -30z"/>
<path d="M5685 6310 c-17 -19 -17 -21 0 -40 14 -15 21 -17 31 -9 8 6 21 9 29
5 10 -4 15 1 15 14 0 27 28 25 33 -2 4 -16 5 -13 4 7 -2 32 -33 48 -48 24 -6
-11 -12 -10 -27 4 -18 16 -20 16 -37 -3z m35 -15 c0 -8 -7 -15 -15 -15 -8 0
-15 7 -15 15 0 8 7 15 15 15 8 0 15 -7 15 -15z"/>
<path d="M5879 6328 c-3 -15 -6 -23 -14 -42 -10 -23 7 -35 41 -28 18 3 24 11
24 29 0 15 -4 22 -11 18 -6 -4 -17 1 -24 11 -8 11 -15 16 -16 12z"/>
<path d="M5962 6309 c-24 -25 -28 -39 -12 -39 6 0 10 7 10 15 0 25 38 18 43
-7 4 -21 4 -21 6 -2 0 11 -5 28 -12 38 -13 18 -15 18 -35 -5z"/>
<path d="M6036 6322 c-6 -10 -2 -59 6 -67 3 -3 11 1 18 10 10 12 10 18 -1 32
-8 9 -12 18 -11 20 2 3 1 7 -1 9 -3 3 -7 1 -11 -4z"/>
<path d="M6266 6314 c-9 -8 -16 -19 -16 -24 0 -14 31 -41 41 -35 13 9 11 25
-3 23 -6 -2 -13 4 -15 14 -3 10 3 18 14 20 12 2 14 6 6 11 -6 4 -19 0 -27 -9z"/>
<path d="M6513 6323 c-9 -3 -11 -14 -7 -31 9 -38 19 -45 34 -27 10 12 10 18
-1 32 -8 9 -12 18 -11 20 6 8 -2 10 -15 6z"/>
<path d="M6602 6313 c-12 -22 3 -66 20 -61 22 8 34 37 22 55 -15 24 -31 27
-42 6z m28 -24 c0 -11 -4 -17 -10 -14 -5 3 -10 13 -10 21 0 8 5 14 10 14 6 0
10 -9 10 -21z"/>
<path d="M4360 6283 c8 -3 22 -11 30 -17 13 -10 13 -9 1 7 -7 9 -21 17 -30 16
-13 0 -14 -1 -1 -6z"/>
<path d="M6471 6274 c0 -11 3 -14 6 -6 3 7 2 16 -1 19 -3 4 -6 -2 -5 -13z"/>
<path d="M4328 6208 c5 -5 16 -8 23 -6 8 3 3 7 -10 11 -17 4 -21 3 -13 -5z"/>
<path d="M7100 6205 c-7 -9 -10 -18 -6 -22 3 -3 6 -1 6 5 0 6 8 12 18 14 11 2
13 6 6 11 -7 4 -17 0 -24 -8z"/>
<path d="M5610 6206 c0 -2 9 -6 20 -9 11 -3 18 -1 14 4 -5 9 -34 13 -34 5z"/>
<path d="M6140 6202 c0 -6 9 -8 19 -5 14 3 21 -1 24 -16 4 -19 5 -19 3 1 -1
16 -8 24 -23 26 -13 2 -23 -1 -23 -6z"/>
<path d="M6553 6193 c-4 -11 1 -22 15 -31 30 -20 29 -46 0 -37 -19 6 -21 5
-10 -6 10 -11 16 -11 33 -1 14 9 24 10 33 3 10 -8 11 -3 8 22 -5 30 -4 31 13
17 16 -13 18 -13 13 0 -7 21 -38 25 -38 6 0 -20 -5 -20 -35 0 -30 20 -33 38
-5 31 11 -3 18 -1 14 4 -9 15 -34 10 -41 -8z"/>
<path d="M7298 6203 c7 -3 16 -2 19 1 4 3 -2 6 -13 5 -11 0 -14 -3 -6 -6z"/>
<path d="M7597 6203 c-14 -14 -6 -33 21 -47 15 -8 23 -15 17 -16 -5 0 3 -7 19
-15 28 -15 46 -13 46 7 0 7 -6 6 -15 -2 -9 -8 -15 -8 -15 -2 0 6 -16 20 -35
32 -38 24 -47 45 -15 37 11 -3 18 -1 14 4 -6 11 -28 12 -37 2z"/>
<path d="M8430 6200 c0 -5 5 -10 11 -10 5 0 7 5 4 10 -3 6 -8 10 -11 10 -2 0
-4 -4 -4 -10z"/>
<path d="M5600 6181 c0 -6 9 -16 20 -23 27 -17 27 -41 -1 -33 -15 5 -19 4 -15
-4 4 -6 13 -11 19 -11 17 1 65 40 49 40 -8 0 -27 9 -43 21 -16 11 -29 16 -29
10z"/>
<path d="M6353 6183 c-7 -2 -12 -17 -12 -31 2 -24 2 -24 6 -4 5 25 13 28 31
10 13 -13 15 -8 6 16 -6 17 -11 18 -31 9z"/>
<path d="M7142 6160 c0 -19 2 -27 5 -17 2 9 2 25 0 35 -3 9 -5 1 -5 -18z"/>
<path d="M7530 6180 c0 -5 5 -10 10 -10 6 0 10 5 10 10 0 6 -4 10 -10 10 -5 0
-10 -4 -10 -10z"/>
<path d="M5675 6170 c-3 -5 1 -10 9 -10 9 0 16 5 16 10 0 6 -4 10 -9 10 -6 0
-13 -4 -16 -10z"/>
<path d="M5736 6173 c7 -4 14 -19 17 -33 4 -22 5 -21 4 4 -1 17 -9 31 -17 33
-10 3 -11 2 -4 -4z"/>
<path d="M5787 6174 c-3 -4 1 -17 9 -29 12 -18 12 -24 2 -28 -10 -4 -10 -6 0
-6 18 -1 28 29 12 39 -7 4 -9 13 -6 19 8 12 -6 15 -17 5z"/>
<path d="M5840 6172 c0 -4 9 -8 19 -8 11 0 17 4 15 8 -3 4 -12 8 -20 8 -8 0
-14 -4 -14 -8z"/>
<path d="M5900 6170 c0 -5 4 -10 9 -10 6 0 13 5 16 10 3 6 -1 10 -9 10 -9 0
-16 -4 -16 -10z"/>
<path d="M5981 6148 c1 -30 2 -30 8 -9 9 33 28 38 34 9 4 -20 4 -20 6 5 1 23
-3 27 -24 27 -22 0 -25 -4 -24 -32z"/>
<path d="M6050 6172 c0 -4 9 -8 20 -8 11 0 20 4 20 8 0 4 -9 8 -20 8 -11 0
-20 -4 -20 -8z"/>
<path d="M6218 6173 c7 -3 16 -2 19 1 4 3 -2 6 -13 5 -11 0 -14 -3 -6 -6z"/>
<path d="M6280 6155 c-7 -14 -10 -28 -5 -32 4 -5 10 -2 12 5 4 10 8 10 19 1
11 -9 14 -8 14 4 0 21 -11 47 -19 47 -4 0 -14 -11 -21 -25z"/>
<path d="M6410 6171 c0 -5 -3 -16 -6 -25 -3 -9 -1 -16 5 -16 6 0 11 7 11 15 0
8 5 15 11 15 5 0 7 5 4 10 -8 13 -25 13 -25 1z"/>
<path d="M6686 6172 c7 -4 10 -19 9 -35 -2 -15 1 -25 6 -21 5 3 9 18 9 35 0
21 -5 29 -17 29 -12 0 -14 -3 -7 -8z"/>
<path d="M6730 6170 c0 -5 4 -10 9 -10 6 0 13 5 16 10 3 6 -1 10 -9 10 -9 0
-16 -4 -16 -10z"/>
<path d="M6846 6164 c-3 -9 -6 -21 -5 -27 0 -7 4 -2 9 10 6 15 15 21 25 17 8
-3 15 -1 15 5 0 17 -37 13 -44 -5z"/>
<path d="M6940 6171 c0 -5 9 -7 20 -4 11 3 20 7 20 9 0 2 -9 4 -20 4 -11 0
-20 -4 -20 -9z"/>
<path d="M7010 6170 c0 -5 7 -10 15 -10 8 0 15 5 15 10 0 6 -7 10 -15 10 -8 0
-15 -4 -15 -10z"/>
<path d="M7298 6161 c25 -22 22 -44 -5 -34 -11 4 -14 3 -9 -5 10 -17 33 -15
40 4 8 20 1 31 -27 45 -21 10 -21 9 1 -10z"/>
<path d="M7356 6164 c-3 -9 -6 -23 -6 -31 0 -13 3 -13 15 -3 11 9 15 9 15 1 0
-7 4 -10 9 -7 9 6 -9 56 -20 56 -4 0 -10 -7 -13 -16z"/>
<path d="M7455 6156 c29 -24 30 -24 37 -4 5 11 13 16 19 12 8 -4 9 -3 5 4 -10
16 -33 15 -39 0 -4 -10 -7 -10 -18 0 -7 6 -18 12 -23 12 -6 0 3 -11 19 -24z"/>
<path d="M7660 6172 c0 -4 9 -8 20 -8 11 0 20 4 20 8 0 4 -9 8 -20 8 -11 0
-20 -4 -20 -8z"/>
<path d="M8292 6153 c-31 -45 -54 -94 -48 -106 3 -8 5 -8 5 1 1 7 19 40 41 73
23 32 36 59 31 59 -5 0 -18 -12 -29 -27z"/>
<path d="M8383 6157 c-18 -12 -37 -35 -43 -51 -8 -25 -8 -27 6 -16 15 13 78
90 72 89 -1 0 -18 -10 -35 -22z"/>
<path d="M4150 6166 c0 -2 7 -7 16 -10 8 -3 12 -2 9 4 -6 10 -25 14 -25 6z"/>
<path d="M6140 6155 c0 -9 6 -12 15 -9 8 4 15 10 15 15 0 5 -7 9 -15 9 -8 0
-15 -7 -15 -15z"/>
<path d="M6981 6144 c0 -11 3 -14 6 -6 3 7 2 16 -1 19 -3 4 -6 -2 -5 -13z"/>
<path d="M7730 6141 c0 -11 5 -23 10 -26 6 -3 10 3 10 14 0 11 -4 23 -10 26
-5 3 -10 -3 -10 -14z"/>
<path d="M4316 6142 c-3 -5 1 -9 9 -9 8 0 12 4 9 9 -3 4 -7 8 -9 8 -2 0 -6 -4
-9 -8z"/>
<path d="M4676 6136 c10 -8 21 -12 24 -10 5 6 -21 24 -34 24 -6 0 -1 -6 10
-14z"/>
<path d="M5724 6139 c-3 -6 -1 -16 5 -22 8 -8 11 -5 11 11 0 24 -5 28 -16 11z"/>
<path d="M6080 6138 c0 -6 -7 -19 -16 -29 -15 -16 -14 -17 5 -12 14 3 21 13
21 29 0 13 -2 24 -5 24 -3 0 -5 -5 -5 -12z"/>
<path d="M6757 6133 c3 -7 -1 -13 -8 -13 -7 0 -10 -3 -7 -6 6 -6 48 17 48 26
0 3 -8 6 -19 6 -11 0 -17 -5 -14 -13z"/>
<path d="M5860 6125 c-8 -9 -8 -15 -2 -15 12 0 26 19 19 26 -2 2 -10 -2 -17
-11z"/>
<path d="M6364 6125 c-17 -13 -17 -14 -2 -15 9 0 20 5 23 11 11 17 0 20 -21 4z"/>
<path d="M7090 6130 c0 -7 24 -20 36 -20 13 0 1 19 -16 23 -11 3 -20 2 -20 -3z"/>
<path d="M4350 6120 c0 -5 5 -10 11 -10 5 0 7 5 4 10 -3 6 -8 10 -11 10 -2 0
-4 -4 -4 -10z"/>
<path d="M6215 6120 c-3 -5 -2 -10 4 -10 5 0 13 5 16 10 3 6 2 10 -4 10 -5 0
-13 -4 -16 -10z"/>
<path d="M6800 6120 c0 -5 5 -10 10 -10 6 0 10 5 10 10 0 6 -4 10 -10 10 -5 0
-10 -4 -10 -10z"/>
<path d="M7010 6110 c0 -13 5 -20 13 -17 6 2 12 10 12 17 0 7 -6 15 -12 18 -8
2 -13 -5 -13 -18z"/>
<path d="M7595 6120 c3 -5 14 -10 23 -10 15 0 15 2 2 10 -20 13 -33 13 -25 0z"/>
<path d="M4710 6111 c0 -6 4 -13 10 -16 6 -3 7 1 4 9 -7 18 -14 21 -14 7z"/>
<path d="M3537 6099 c7 -7 15 -10 18 -7 3 3 -2 9 -12 12 -14 6 -15 5 -6 -5z"/>
<path d="M4466 6083 c-6 -14 -5 -15 5 -6 7 7 10 15 7 18 -3 3 -9 -2 -12 -12z"/>
<path d="M2051 6064 c0 -11 3 -14 6 -6 3 7 2 16 -1 19 -3 4 -6 -2 -5 -13z"/>
<path d="M5610 6061 c0 -6 9 -9 19 -8 11 0 17 5 15 9 -7 11 -34 10 -34 -1z"/>
<path d="M5962 6058 c-24 -24 -11 -88 17 -88 14 1 14 2 -1 11 -11 6 -18 22
-18 41 0 27 3 30 25 26 20 -4 23 -3 14 8 -14 17 -22 17 -37 2z"/>
<path d="M6206 6062 c-2 -4 4 -9 15 -9 10 -1 19 2 19 8 0 11 -27 12 -34 1z"/>
<path d="M6551 6023 c1 -27 3 -40 6 -30 2 9 9 17 15 17 6 0 5 7 -3 16 -11 14
-10 18 6 30 18 14 18 14 -3 14 -20 0 -22 -5 -21 -47z"/>
<path d="M6831 6051 c-10 -17 -9 -18 14 -7 28 12 33 26 10 26 -8 0 -19 -9 -24
-19z"/>
<path d="M8291 6043 c-14 -15 -51 -110 -50 -128 0 -5 16 23 35 64 36 77 39 89
15 64z"/>
<path d="M6745 6034 c-13 -14 -21 -15 -35 -6 -18 11 -30 7 -30 -10 0 -4 9 -8
20 -8 10 0 24 -9 30 -20 12 -22 35 -26 46 -9 4 8 0 9 -15 4 -17 -5 -21 -2 -21
14 0 12 8 21 20 23 13 2 17 7 11 16 -6 11 -12 10 -26 -4z"/>
<path d="M5620 6018 c14 -11 24 -25 23 -29 -2 -5 4 -9 12 -9 8 0 15 3 15 6 0
10 -54 54 -65 54 -5 -1 1 -10 15 -22z"/>
<path d="M5684 6004 c0 -19 4 -34 8 -34 4 0 8 13 8 29 0 17 -4 32 -8 35 -4 2
-8 -11 -8 -30z"/>
<path d="M5795 6030 c-3 -5 -2 -10 4 -10 5 0 13 5 16 10 3 6 2 10 -4 10 -5 0
-13 -4 -16 -10z"/>
<path d="M5853 6033 c-7 -3 -12 -14 -12 -26 1 -18 2 -19 6 -4 4 14 8 16 19 6
11 -9 14 -8 14 4 0 19 -10 26 -27 20z"/>
<path d="M6030 6030 c0 -5 7 -10 15 -10 8 0 15 5 15 10 0 6 -7 10 -15 10 -8 0
-15 -4 -15 -10z"/>
<path d="M6200 6032 c0 -5 11 -14 25 -20 14 -6 25 -16 25 -22 0 -5 5 -10 11
-10 15 0 3 16 -31 40 -17 12 -30 17 -30 12z"/>
<path d="M6390 6030 c0 -5 5 -10 10 -10 6 0 10 5 10 10 0 6 -4 10 -10 10 -5 0
-10 -4 -10 -10z"/>
<path d="M6447 6033 c-11 -11 -8 -51 5 -59 8 -5 9 -2 4 11 -4 11 -2 22 6 26 9
6 10 11 2 19 -6 6 -13 7 -17 3z"/>
<path d="M6610 6030 c0 -5 5 -10 10 -10 6 0 10 5 10 10 0 6 -4 10 -10 10 -5 0
-10 -4 -10 -10z"/>
<path d="M6898 6033 c-20 -5 -24 -28 -8 -38 6 -3 10 1 10 9 0 9 9 16 20 16 11
0 20 5 20 10 0 10 -12 11 -42 3z"/>
<path d="M6995 6030 c-3 -5 1 -10 9 -10 9 0 16 5 16 10 0 6 -4 10 -9 10 -6 0
-13 -4 -16 -10z"/>
<path d="M7055 6030 c-3 -5 1 -10 9 -10 9 0 16 5 16 10 0 6 -4 10 -9 10 -6 0
-13 -4 -16 -10z"/>
<path d="M5761 6015 c0 -12 -6 -26 -13 -33 -9 -9 -9 -12 0 -12 16 0 25 23 19
47 -4 16 -5 15 -6 -2z"/>
<path d="M6289 6028 c-5 -16 -3 -58 3 -58 4 0 8 14 8 30 0 17 -2 30 -5 30 -3
0 -5 -1 -6 -2z"/>
<path d="M6360 6003 c0 -21 3 -24 9 -14 5 8 7 20 4 28 -8 21 -13 15 -13 -14z"/>
<path d="M7031 6004 c0 -11 3 -14 6 -6 3 7 2 16 -1 19 -3 4 -6 -2 -5 -13z"/>
<path d="M6656 5995 c-3 -8 -1 -15 4 -15 6 0 10 7 10 15 0 8 -2 15 -4 15 -2 0
-6 -7 -10 -15z"/>
<path d="M5790 5980 c0 -6 7 -10 15 -10 8 0 15 2 15 4 0 2 -7 6 -15 10 -8 3
-15 1 -15 -4z"/>
<path d="M6330 5980 c0 -5 5 -10 11 -10 5 0 7 5 4 10 -3 6 -8 10 -11 10 -2 0
-4 -4 -4 -10z"/>
<path d="M6830 5978 c0 -4 9 -8 20 -8 11 0 20 4 20 8 0 4 -9 8 -20 8 -11 0
-20 -4 -20 -8z"/>
<path d="M6995 5980 c3 -5 11 -10 16 -10 6 0 7 5 4 10 -3 6 -11 10 -16 10 -6
0 -7 -4 -4 -10z"/>
<path d="M2720 5970 c8 -5 20 -10 25 -10 6 0 3 5 -5 10 -8 5 -19 10 -25 10 -5
0 -3 -5 5 -10z"/>
<path d="M5615 5970 c3 -5 8 -10 11 -10 2 0 4 5 4 10 0 6 -5 10 -11 10 -5 0
-7 -4 -4 -10z"/>
<path d="M6200 5976 c0 -2 7 -6 15 -10 8 -3 15 -1 15 4 0 6 -7 10 -15 10 -8 0
-15 -2 -15 -4z"/>
<path d="M8212 5960 c0 -14 2 -19 5 -12 2 6 2 18 0 25 -3 6 -5 1 -5 -13z"/>
<path d="M4615 5900 c-3 -6 1 -7 9 -4 18 7 21 14 7 14 -6 0 -13 -4 -16 -10z"/>
<path d="M8191 5870 c-4 -59 -31 -213 -39 -223 -5 -7 -13 -28 -16 -47 -10 -52
42 68 65 152 17 61 17 72 5 100 -8 18 -15 26 -15 18z"/>
<path d="M3908 5783 c7 -3 16 -2 19 1 4 3 -2 6 -13 5 -11 0 -14 -3 -6 -6z"/>
<path d="M3250 5731 c0 -6 4 -13 10 -16 6 -3 7 1 4 9 -7 18 -14 21 -14 7z"/>
<path d="M2079 5684 c-26 -28 -169 -122 -234 -154 -5 -3 -49 -31 -97 -62 -94
-61 -117 -92 -43 -56 24 12 41 26 38 31 -3 6 -1 7 5 3 6 -3 79 26 162 65 146
70 150 73 133 91 -17 19 -16 21 17 51 36 33 66 67 58 67 -2 0 -20 -16 -39 -36z
m-39 -95 c0 -4 -7 -6 -15 -3 -8 4 -15 10 -15 15 0 4 7 6 15 3 8 -4 15 -10 15
-15z"/>
<path d="M2610 5660 c-9 -6 -10 -10 -3 -10 6 0 15 5 18 10 8 12 4 12 -15 0z"/>
<path d="M7516 5615 c-31 -24 -11 -28 25 -6 26 16 29 21 14 21 -11 -1 -29 -7
-39 -15z"/>
<path d="M7435 5570 c-16 -11 -55 -32 -85 -47 -30 -16 -61 -33 -68 -40 -6 -6
-21 -15 -33 -18 -11 -4 -18 -9 -16 -11 6 -7 89 27 105 43 8 7 17 11 21 8 5 -2
17 4 27 13 10 10 36 26 56 35 20 10 40 22 43 27 10 17 -18 11 -50 -10z"/>
<path d="M7575 5485 c-44 -30 -95 -60 -112 -66 -18 -6 -33 -16 -33 -22 0 -8 4
-7 12 1 7 7 21 12 33 12 11 0 56 23 100 50 44 28 87 50 97 50 23 0 32 16 12
24 -24 9 -24 9 -109 -49z"/>
<path d="M5066 5464 c-140 -190 -398 -325 -676 -354 -56 -6 -513 -10 -1100
-10 -1054 0 -1041 0 -1243 -44 -155 -34 -394 -179 -521 -317 l-66 -72 1 -356
1 -356 26 35 c114 149 321 316 482 387 30 14 69 31 85 39 17 7 66 24 110 36
l80 23 1018 3 c846 2 1017 0 1017 -11 0 -7 -14 -26 -31 -43 l-30 -29 -957 -6
c-1042 -6 -980 -3 -1167 -64 -94 -31 -196 -82 -280 -138 -76 -52 -248 -222
-309 -307 l-46 -64 0 -1155 0 -1154 56 62 c108 119 387 279 659 379 118 43
457 146 695 210 433 117 863 226 1050 266 l125 27 129 -125 c154 -151 279
-249 454 -354 506 -307 1118 -487 1887 -554 312 -27 927 -14 1240 27 112 15
186 24 240 30 17 2 59 4 94 4 56 1 62 3 51 16 -10 12 -15 13 -21 4 -6 -10 -11
-10 -22 0 -9 7 -18 8 -21 3 -7 -12 -56 -10 -75 2 -8 5 -16 4 -21 -5 -7 -10
-11 -10 -23 0 -11 8 -17 9 -22 1 -5 -8 -11 -8 -19 -1 -9 7 -16 7 -24 -1 -8 -8
-15 -8 -26 1 -10 8 -16 9 -21 1 -10 -17 -25 -11 -25 9 0 11 -4 23 -10 26 -6 4
-10 -5 -10 -19 0 -16 -6 -26 -15 -26 -8 0 -15 5 -15 11 0 8 -5 8 -15 -1 -11
-9 -19 -10 -28 -1 -10 8 -17 7 -26 -2 -15 -15 -31 6 -31 45 0 31 15 44 34 29
9 -7 16 -7 24 1 8 8 15 8 27 -2 10 -8 15 -9 15 -1 0 15 27 14 33 -1 4 -10 8
-10 15 1 8 11 14 12 24 3 11 -9 17 -9 26 0 8 8 15 8 27 -2 9 -8 15 -8 15 -2 0
12 58 11 78 -1 6 -5 12 -4 12 2 0 5 17 9 38 8 30 -2 38 -7 40 -25 4 -28 23
-29 19 -1 -1 12 4 24 10 26 9 3 12 -4 9 -24 -2 -15 -1 -20 1 -11 6 23 30 41
44 33 7 -5 9 -24 6 -51 l-5 -44 34 -1 c19 -1 49 -2 67 -3 47 -3 67 10 67 44 0
26 4 30 58 45 144 40 321 103 323 114 3 28 5 368 2 374 -2 4 -19 -9 -37 -28
-33 -34 -59 -44 -71 -26 -3 5 4 13 16 16 11 4 18 13 16 20 -7 17 12 98 24 105
5 4 12 36 16 73 7 74 6 75 -59 57 -23 -7 -45 -23 -59 -43 -42 -60 -142 -162
-178 -182 -74 -41 -91 -60 -91 -102 0 -21 -7 -49 -16 -61 -20 -29 -77 -64
-130 -81 -25 -8 -60 -33 -93 -66 -62 -64 -133 -95 -220 -95 -91 0 -147 24
-219 96 l-62 63 -25 -25 c-13 -13 -29 -24 -36 -24 -17 0 -3 62 19 80 15 12 18
31 17 105 0 99 18 153 77 228 16 20 25 37 19 37 -5 0 -14 -8 -20 -18 -8 -13
-14 -15 -27 -7 -9 6 -15 13 -13 16 2 3 -8 20 -23 38 -16 18 -28 39 -28 46 0
15 27 45 41 45 5 0 -9 24 -31 53 -22 28 -41 60 -41 70 -1 9 -2 23 -3 30 -1 6
-11 20 -23 30 -31 25 -29 68 2 106 25 29 25 30 6 40 -32 17 -45 13 -59 -19 -8
-16 -32 -44 -55 -62 -23 -18 -46 -39 -51 -48 -5 -8 -32 -37 -59 -63 -48 -46
-49 -49 -43 -89 4 -24 16 -51 26 -61 23 -21 26 -37 6 -37 -8 0 -32 21 -54 46
l-39 45 -46 -22 c-26 -13 -47 -26 -47 -30 0 -16 85 -79 107 -79 14 0 21 -4 18
-10 -12 -19 -57 -10 -101 21 -25 17 -48 37 -51 45 -8 23 -55 16 -91 -14 -32
-27 -33 -28 -18 -57 9 -16 26 -37 38 -47 21 -16 21 -18 4 -18 -25 0 -86 47
-86 66 0 18 -12 18 -57 -1 -30 -13 -33 -17 -23 -30 14 -17 9 -19 -52 -30 -21
-3 -38 -1 -40 5 -3 10 -57 3 -163 -23 -33 -8 -98 -18 -145 -21 -85 -7 -109 -3
-270 45 -19 6 -54 15 -77 20 -24 6 -43 14 -43 19 0 14 68 66 120 91 27 13 49
27 50 30 0 4 -28 10 -62 13 -160 18 -532 90 -666 128 -58 17 -81 30 -112 62
-22 22 -40 46 -40 52 0 6 -6 17 -14 23 -18 15 -61 107 -76 162 -17 63 -30 76
-49 50 -9 -11 -40 -29 -69 -39 -29 -11 -58 -24 -65 -31 -6 -6 -17 -11 -24 -11
-9 0 -11 -10 -6 -32 8 -42 6 -41 36 -27 14 6 37 9 52 5 31 -8 75 -52 75 -75 0
-14 -2 -14 -10 -1 -8 13 -10 12 -10 -3 0 -17 -4 -16 -31 7 -36 30 -39 31 -65
11 -27 -20 -54 -19 -54 3 0 11 -7 33 -16 51 -26 51 -23 115 5 145 34 36 87 51
133 38 60 -17 72 -1 61 83 -6 46 -13 69 -21 67 -14 -3 -16 14 -2 23 13 8 13
75 -1 75 -6 0 -8 -8 -4 -19 5 -16 2 -18 -15 -14 -16 4 -23 0 -27 -15 -5 -20
-6 -20 -31 -4 -24 16 -25 16 -13 -5 17 -32 14 -36 -11 -13 -26 23 -48 26 -48
5 0 -8 -9 -19 -19 -25 -27 -14 -31 -13 -24 7 5 12 3 14 -7 8 -15 -9 -37 -14
-89 -17 -42 -4 -53 18 -17 32 14 5 33 24 42 42 29 58 63 64 91 18 22 -39 39
-38 47 2 8 38 6 40 -39 40 l-36 0 33 25 c28 21 41 24 80 19 33 -3 50 -1 58 10
7 8 8 14 3 14 -13 0 -33 60 -33 97 0 19 6 33 16 37 22 9 24 7 31 -53 3 -28 8
-51 11 -51 2 0 16 12 29 26 36 40 19 75 -50 99 -50 17 -87 44 -87 64 0 5 -7
12 -16 15 -12 5 -15 2 -10 -9 3 -9 1 -21 -5 -28 -5 -7 -20 -32 -32 -57 -23
-45 -47 -64 -47 -36 0 26 -17 18 -28 -14 -11 -30 -19 -34 -96 -44 -47 -6 -50
-9 -41 -36 4 -12 23 -28 46 -36 39 -16 46 -37 9 -27 -16 4 -20 0 -20 -20 0
-32 -14 -42 -30 -22 -15 18 -49 19 -101 3 -47 -14 -95 2 -85 28 21 54 20 55
-44 132 -6 6 -16 12 -22 12 -7 0 -4 -6 6 -13 15 -11 16 -17 7 -35 -6 -11 -10
-31 -8 -44 1 -12 -3 -23 -10 -23 -22 0 -25 -14 -9 -37 22 -31 20 -45 -6 -54
-24 -7 -48 -28 -48 -41 0 -5 10 -13 23 -18 26 -12 35 -57 17 -90 -9 -17 -9
-28 -1 -44 9 -17 9 -26 -3 -43 l-15 -21 -12 27 c-10 22 -10 32 0 48 10 16 10
26 0 50 -10 26 -15 28 -43 22 -41 -8 -56 -22 -56 -50 0 -27 -12 -37 -34 -28
-11 4 -14 14 -9 35 4 24 2 29 -13 29 -11 0 -25 -4 -33 -9 -13 -9 -71 7 -71 20
0 4 14 12 30 19 28 12 30 16 24 44 -3 17 -15 47 -25 66 -35 67 -67 159 -62
180 6 23 36 26 73 6 17 -10 30 -11 43 -4 12 6 23 6 31 -1 17 -14 34 4 42 45 5
27 3 30 -39 42 -56 17 -91 8 -121 -31 l-24 -30 -12 23 c-10 19 -8 27 20 62 31
37 31 40 14 53 -18 13 -18 15 -2 31 15 16 18 16 33 0 20 -20 41 -21 48 -2 7
18 -1 26 -29 26 -20 0 -22 4 -19 33 13 100 19 201 16 270 l-3 77 26 0 c31 0
86 37 86 58 0 10 -12 13 -51 10 -68 -4 -74 19 -17 64 35 29 39 37 37 73 -3 75
1 96 26 120 13 14 35 25 47 25 13 0 31 9 41 20 9 11 23 17 32 14 11 -4 20 4
30 29 15 37 48 67 75 67 30 1 81 60 51 60 -16 0 -71 51 -71 65 0 23 43 22 82
-2 46 -28 68 -29 68 -3 0 20 26 26 82 21 22 -3 69 28 67 43 -4 32 6 45 58 74
49 29 58 31 65 18 12 -22 23 -20 52 7 17 16 23 30 20 44 -4 14 2 29 15 42 24
24 41 27 41 8 0 -7 6 -22 14 -32 13 -18 14 -18 39 2 14 11 51 50 82 86 57 67
82 83 121 78 15 -1 32 11 54 38 17 23 36 41 41 41 5 0 28 -18 51 -40 46 -45
61 -47 66 -7 3 21 -2 29 -22 37 -15 5 -28 20 -32 36 -10 38 13 48 52 23 35
-21 45 -19 114 22 68 40 93 43 127 16 28 -24 103 -43 103 -27 0 5 12 22 26 39
31 37 84 44 84 12 0 -11 4 -22 9 -25 14 -9 59 11 93 39 31 27 70 31 114 15 32
-13 49 -3 142 79 60 52 64 57 58 89 -3 19 -1 43 4 53 6 10 7 20 2 23 -10 6
-308 -45 -457 -79 -237 -53 -621 -175 -791 -250 -31 -14 -60 -25 -65 -25 -5 0
-10 118 -11 262 l-3 261 -29 -39z m-186 -238 c0 -3 -4 -8 -10 -11 -5 -3 -10
-1 -10 4 0 6 5 11 10 11 6 0 10 -2 10 -4z m-1487 -153 c-7 -2 -19 -2 -25 0 -7
3 -2 5 12 5 14 0 19 -2 13 -5z m594 -19 c-3 -3 -12 -4 -19 -1 -8 3 -5 6 6 6
11 1 17 -2 13 -5z m-17 -44 c0 -5 -4 -10 -10 -10 -5 0 -10 5 -10 10 0 6 5 10
10 10 6 0 10 -4 10 -10z m-40 -60 c0 -5 -4 -10 -10 -10 -5 0 -10 5 -10 10 0 6
5 10 10 10 6 0 10 -4 10 -10z m-635 -92 l45 -93 0 87 c0 84 1 88 24 94 14 3
29 3 34 0 5 -3 10 -75 10 -161 l2 -155 -33 0 c-31 0 -35 4 -79 93 l-47 92 0
-92 -1 -93 -32 0 -33 0 2 149 c0 82 4 154 8 160 3 6 17 11 31 11 22 0 31 -12
69 -92z m25 28 c0 -6 -7 2 -15 18 -8 15 -15 33 -15 40 0 6 7 -2 15 -18 8 -15
15 -33 15 -40z m728 -100 l3 -158 -33 4 c-18 3 -40 0 -50 -5 -24 -15 -66 1
-92 36 -35 48 -25 146 20 191 18 19 65 21 82 4 9 -9 12 0 12 41 0 51 1 52 28
49 l27 -3 3 -159z m94 151 c5 -7 8 -79 7 -160 l-1 -148 -31 3 -32 3 -3 135
c-1 74 0 144 2 155 6 23 46 31 58 12z m-2099 -137 c-2 -74 -3 -141 -3 -147 0
-7 -11 -13 -25 -13 l-25 0 0 151 0 150 27 -3 28 -3 -2 -135z m514 134 c-3 -3
-12 -4 -19 -1 -8 3 -5 6 6 6 11 1 17 -2 13 -5z m503 -4 c0 -5 -4 -10 -10 -10
-5 0 -10 -13 -10 -30 0 -20 5 -30 15 -30 9 0 15 -9 15 -25 0 -16 -6 -25 -15
-25 -12 0 -15 -13 -15 -59 0 -43 4 -60 15 -65 22 -8 20 -56 -2 -57 -34 -2 -58
3 -65 15 -4 6 -8 45 -8 87 0 59 -3 78 -15 83 -19 7 -19 32 -1 43 8 4 16 21 18
38 2 21 10 31 28 36 37 10 50 10 50 -1z m-537 -6 c9 -3 12 -14 9 -30 -3 -19 0
-26 15 -30 15 -4 19 -12 15 -30 -2 -13 -11 -24 -18 -24 -21 0 -20 -118 1 -126
8 -4 15 -17 15 -30 0 -21 -5 -24 -34 -24 -51 0 -66 27 -59 102 4 44 1 63 -10
76 -23 27 -27 60 -8 58 9 -1 16 7 17 19 1 11 2 26 3 33 1 12 29 16 54 6z m217
-9 c0 -12 -19 -12 -23 0 -4 9 -1 12 9 8 7 -3 14 -7 14 -8z m-50 -15 c0 -5 -4
-10 -10 -10 -5 0 -10 5 -10 10 0 6 5 10 10 10 6 0 10 -4 10 -10z m971 -43
c-10 -9 -11 -8 -5 6 3 10 9 15 12 12 3 -3 0 -11 -7 -18z m-1536 2 c6 0 24 3
40 7 22 4 37 0 54 -13 21 -17 23 -27 25 -118 l1 -100 -30 0 -30 0 -3 83 c-2
63 -6 84 -18 89 -25 9 -33 -8 -35 -82 -3 -86 -6 -95 -30 -95 -26 0 -29 11 -33
121 -3 97 5 125 33 113 9 -3 21 -6 26 -5z m276 -2 c22 -17 41 -55 34 -67 -9
-15 -42 -12 -59 5 -16 16 -56 21 -56 6 0 -5 24 -17 52 -27 39 -14 55 -26 62
-46 28 -79 -83 -144 -148 -85 -55 50 -32 100 26 57 28 -21 61 -24 62 -6 1 4
-21 16 -48 27 -27 10 -53 24 -58 31 -14 23 -8 65 13 92 16 21 29 26 62 26 23
0 49 -6 58 -13z m302 2 c33 -18 37 -28 37 -111 0 -42 5 -89 10 -103 9 -23 8
-26 -7 -22 -56 15 -76 17 -89 6 -22 -18 -59 -2 -78 33 -30 56 -3 94 87 122 9
3 17 10 17 16 0 15 -36 12 -50 -5 -7 -8 -25 -14 -40 -13 l-28 2 19 37 c10 20
24 39 31 42 23 10 69 7 91 -4z m117 1 c0 -7 6 -7 19 0 33 17 69 12 85 -12 15
-24 28 -189 16 -208 -4 -6 -20 -10 -36 -8 l-29 2 0 85 c0 79 -2 86 -20 86 -18
0 -20 -8 -25 -85 l-5 -85 -30 0 -30 0 -3 109 c-3 113 1 126 41 126 9 0 17 -5
17 -10z m782 -22 c28 -30 30 -36 26 -96 -4 -58 -8 -68 -36 -93 -82 -74 -181
11 -158 134 16 88 109 118 168 55z m209 1 c25 -27 29 -39 29 -89 0 -48 -5 -64
-25 -88 -30 -36 -68 -47 -107 -31 -39 16 -58 57 -58 124 0 49 4 60 29 86 42
41 92 40 132 -2z m501 20 c23 -12 48 -66 48 -104 0 -22 -4 -25 -37 -27 -21 0
-50 0 -65 1 -31 3 -38 -18 -13 -39 12 -10 20 -9 41 4 14 10 35 16 47 14 12 -1
27 1 34 5 13 8 58 -7 68 -22 9 -16 45 -13 45 2 0 8 -18 19 -40 26 -50 15 -70
35 -70 70 0 46 35 81 79 81 48 0 93 -33 89 -64 -4 -26 -45 -35 -54 -12 -6 16
-54 23 -54 8 0 -5 18 -15 40 -22 59 -20 83 -46 76 -84 -8 -40 -49 -76 -88 -76
-39 0 -88 29 -88 52 0 24 -17 23 -25 -1 -3 -10 -20 -26 -39 -36 -41 -22 -78
-15 -112 22 -20 22 -24 36 -24 90 0 58 3 68 29 94 31 31 75 38 113 18z m778
-43 c0 -8 -7 -16 -15 -20 -13 -4 -14 -2 -5 14 13 23 20 26 20 6z m-1980 -28
c0 -7 -5 -6 -13 1 -8 6 -18 7 -22 3 -5 -4 -5 -2 -1 5 8 14 36 6 36 -9z m1861
-85 c10 -11 10 -14 2 -9 -8 4 -13 2 -13 -6 0 -9 -3 -9 -10 2 -8 12 -10 12 -10
1 0 -8 -2 -12 -5 -9 -7 7 5 38 15 38 4 0 14 -8 21 -17z m-1318 -57 c7 3 3 -2
-7 -10 -23 -19 -29 -16 -19 10 4 11 8 13 11 6 2 -7 9 -10 15 -6z m-793 -26 c0
-5 -7 -10 -15 -10 -8 0 -15 5 -15 10 0 6 7 10 15 10 8 0 15 -4 15 -10z m1150
-36 c0 -2 -7 -4 -15 -4 -8 0 -15 4 -15 10 0 5 7 7 15 4 8 -4 15 -8 15 -10z
m305 6 c3 -5 2 -10 -4 -10 -5 0 -13 5 -16 10 -3 6 -2 10 4 10 5 0 13 -4 16
-10z m405 0 c0 -5 -2 -10 -4 -10 -3 0 -8 5 -11 10 -3 6 -1 10 4 10 6 0 11 -4
11 -10z m85 0 c-3 -5 -14 -10 -23 -9 -14 0 -13 2 3 9 27 11 27 11 20 0z
m-1738 -6 c-3 -3 -12 -4 -19 -1 -8 3 -5 6 6 6 11 1 17 -2 13 -5z m-727 -14 c0
-5 -2 -10 -4 -10 -3 0 -8 5 -11 10 -3 6 -1 10 4 10 6 0 11 -4 11 -10z m2400
-4 c0 -2 -7 -7 -16 -10 -8 -3 -12 -2 -9 4 6 10 25 14 25 6z m-76 -21 c-4 -8
-11 -15 -16 -15 -6 0 -5 6 2 15 7 8 14 15 16 15 2 0 1 -7 -2 -15z m-237 -21
c-3 -3 -12 -4 -19 -1 -8 3 -5 6 6 6 11 1 17 -2 13 -5z m51 -21 c-10 -2 -26 -2
-35 0 -10 3 -2 5 17 5 19 0 27 -2 18 -5z m-120 -10 c-10 -2 -26 -2 -35 0 -10
3 -2 5 17 5 19 0 27 -2 18 -5z m-1683 -254 c4 -6 14 -8 22 -5 8 3 12 2 9 -3
-3 -4 0 -23 7 -40 11 -30 10 -34 -11 -52 -13 -10 -40 -23 -59 -28 -62 -17
-115 26 -98 80 13 41 112 78 130 48z m-175 -50 c0 -7 -8 -17 -17 -24 -13 -10
-18 -36 -23 -116 -7 -98 -4 -133 8 -99 3 8 26 36 52 63 41 41 52 47 89 47 22
0 44 0 48 0 4 0 8 -7 9 -16 2 -9 7 -21 13 -27 7 -7 11 -57 11 -123 0 -102 8
-141 24 -115 4 5 2 12 -4 16 -19 12 -10 21 26 23 35 3 36 2 30 -25 -4 -15 -14
-33 -23 -40 -8 -7 -12 -17 -7 -24 4 -7 3 -10 -3 -6 -6 4 -19 -3 -29 -15 -29
-32 -78 -50 -108 -39 -46 18 -56 46 -56 166 0 108 -12 162 -25 120 -12 -39
-23 -50 -44 -47 -19 3 -21 -1 -21 -55 0 -32 -3 -89 -7 -126 -6 -64 -5 -68 16
-74 43 -11 13 -28 -110 -65 -160 -48 -164 -48 -139 -5 16 27 19 57 22 204 2
95 -1 168 -5 164 -5 -5 -9 -29 -9 -55 -1 -25 -5 -43 -10 -40 -4 3 -8 -14 -8
-38 0 -31 -3 -39 -10 -28 -7 11 -10 7 -10 -17 0 -17 -4 -35 -10 -38 -5 -3 -7
-20 -3 -37 4 -22 3 -29 -5 -24 -8 5 -12 -1 -12 -18 0 -14 -4 -28 -10 -31 -5
-3 -10 -17 -10 -31 0 -62 -64 -101 -76 -46 -22 100 -76 300 -84 314 -6 10 -10
29 -10 43 0 14 -4 25 -9 25 -14 0 -21 -39 -21 -122 0 -42 -4 -79 -8 -82 -5 -3
-7 56 -4 130 4 116 2 137 -12 153 -18 20 -24 18 161 72 56 16 71 8 79 -41 4
-22 11 -43 15 -46 5 -3 9 -17 9 -32 0 -44 24 -7 50 78 12 41 28 81 34 88 12
12 195 70 229 71 9 1 17 -4 17 -10z m1658 -191 c14 -14 16 -52 2 -43 -6 4 -10
-51 -11 -157 -3 -295 2 -266 -60 -329 -119 -120 -313 -139 -363 -35 -23 48 9
96 65 96 10 0 19 5 19 10 0 6 -4 10 -9 10 -4 0 -20 12 -34 26 -25 25 -26 25
-36 5 -6 -11 -11 -25 -11 -32 0 -29 -98 -81 -139 -73 -57 12 -65 33 -71 170
-5 131 -19 162 -34 82 -5 -27 -13 -48 -18 -48 -4 0 -8 -49 -8 -108 0 -121 -5
-132 -60 -132 -19 0 -52 -9 -73 -20 -26 -14 -37 -16 -38 -8 0 7 0 79 1 161 1
98 -2 147 -9 147 -6 0 -11 -12 -11 -26 0 -14 -4 -23 -10 -19 -6 4 -10 -7 -10
-27 0 -18 -9 -46 -19 -61 -21 -32 -87 -76 -113 -77 -10 0 -18 -3 -18 -7 0 -9
-49 -33 -67 -33 -9 0 -13 -16 -13 -53 0 -82 27 -96 96 -51 21 14 49 41 62 60
28 43 56 47 41 6 -9 -26 -79 -105 -79 -90 0 4 -21 -2 -47 -14 -61 -27 -130
-28 -174 -2 -39 23 -79 86 -79 127 0 27 -13 36 -25 17 -3 -5 -24 -10 -46 -10
-35 0 -42 4 -61 36 l-21 36 -12 -29 c-7 -15 -15 -78 -19 -138 -10 -153 -11
-155 -55 -155 -20 -1 -47 -7 -61 -15 -49 -28 -51 -25 -50 113 1 70 1 137 1
150 -1 28 -21 30 -21 1 0 -11 -4 -18 -9 -14 -13 7 -19 -25 -10 -51 9 -25 -11
-154 -23 -154 -4 0 -8 -8 -8 -18 0 -31 -28 -59 -96 -97 -160 -90 -273 -40
-273 120 0 88 11 121 56 168 62 65 103 82 200 83 45 0 80 -3 77 -8 -3 -4 2 -8
10 -8 9 0 15 -3 14 -7 -2 -5 1 -9 5 -11 5 -2 21 14 36 36 16 22 52 50 83 67
l55 29 31 -23 31 -22 17 26 c23 35 64 55 108 51 45 -4 66 -21 67 -55 l0 -26
16 25 c9 14 40 48 68 76 81 80 184 105 265 64 l39 -20 22 36 c25 41 87 85 126
90 25 2 63 -26 63 -48 0 -17 16 -6 41 31 15 20 43 46 64 55 33 16 45 17 92 7
l53 -12 0 -145 c0 -79 3 -144 8 -144 19 0 41 80 35 128 -10 91 44 202 122 248
48 28 96 31 119 8 15 -14 16 -14 16 5 0 18 6 21 48 21 29 0 58 7 77 19 37 24
38 24 53 9z m-2384 -364 c48 -49 29 -141 -35 -163 -36 -12 -37 -28 -4 -37 37
-9 70 2 110 37 19 17 35 27 35 21 0 -5 -16 -24 -35 -41 -86 -75 -215 -12 -215
106 1 86 88 133 144 77z m133 -61 c-2 -16 -4 -3 -4 27 0 30 2 43 4 28 2 -16 2
-40 0 -55z m-11 -60 c-10 -10 -19 5 -10 18 6 11 8 11 12 0 2 -7 1 -15 -2 -18z
m131 -235 c-4 -66 -7 -170 -7 -230 0 -70 -4 -107 -10 -103 -5 3 -10 -1 -10
-10 0 -27 -72 -96 -125 -121 -66 -31 -85 -31 -56 0 13 13 27 41 32 63 9 38 12
113 5 113 -2 0 -24 -9 -49 -20 -68 -30 -120 -13 -153 52 -23 44 -18 149 10
210 45 103 135 158 181 111 14 -14 18 -14 26 -2 5 8 9 17 9 22 0 4 19 7 43 7
23 0 51 7 61 15 45 34 50 24 43 -107z m3007 96 c24 -9 19 -23 -10 -35 -33 -12
-39 -7 -24 20 12 23 12 23 34 15z m-941 -81 c11 -11 -14 -33 -39 -33 -25 0
-57 -26 -51 -43 2 -6 19 -16 38 -22 27 -9 35 -17 37 -42 2 -24 -4 -36 -32 -61
-44 -39 -111 -61 -129 -43 -9 10 -8 15 7 27 11 8 30 14 42 14 21 0 54 23 54
38 0 4 -20 16 -45 28 l-45 20 -32 -33 c-18 -18 -47 -39 -65 -45 -25 -9 -33
-17 -31 -33 3 -21 21 -24 66 -10 34 11 27 -12 -10 -35 -96 -58 -161 15 -108
120 40 78 127 129 172 101 17 -11 23 -9 42 8 43 40 110 63 129 44z m-380 -50
c4 -7 -4 -66 -28 -200 -5 -28 -3 -33 15 -33 26 0 26 -15 -2 -34 -29 -21 -67
-20 -75 0 -9 24 29 245 45 260 15 15 38 18 45 7z m-93 -31 c0 -24 -42 -241
-51 -261 -7 -18 -15 -22 -35 -18 -13 2 -27 0 -30 -5 -4 -6 -22 -17 -41 -25
-31 -12 -38 -12 -59 2 -13 8 -24 25 -25 38 0 21 -1 21 -12 3 -26 -42 -79 -94
-106 -106 -16 -6 -44 -10 -62 -8 -29 2 -36 8 -45 37 l-11 35 -18 -37 c-47 -99
-191 -141 -211 -62 -7 30 17 101 48 140 37 48 130 80 164 57 6 -4 15 -15 21
-25 9 -17 12 -15 33 16 31 46 80 78 129 84 51 7 71 -8 72 -56 l1 -36 17 38
c24 50 64 91 112 112 21 10 39 25 39 33 0 22 30 52 52 52 10 0 18 -4 18 -8z
m1240 -93 c0 -5 -10 -9 -21 -9 -18 0 -19 2 -9 15 12 15 30 12 30 -6z m-112
-106 c3 -17 -3 -26 -21 -32 -14 -5 -27 -15 -29 -22 -3 -9 -9 -9 -26 0 -49 26
-111 -26 -112 -94 l0 -39 -21 21 c-28 28 -18 76 22 105 22 16 27 27 23 44 -10
39 3 45 84 42 71 -3 77 -5 80 -25z m-1824 -19 c-1 -10 -11 -68 -24 -129 -34
-164 -64 -180 -126 -69 -20 35 -39 64 -44 64 -4 0 -13 -30 -20 -67 -17 -96
-19 -102 -42 -114 -37 -20 -41 2 -18 112 30 146 33 152 59 165 35 18 47 9 87
-63 20 -35 38 -62 40 -60 2 2 10 39 19 83 9 49 21 84 32 92 22 16 38 10 37
-14z m2096 -40 c-16 -16 -18 -24 -9 -29 8 -6 5 -13 -12 -26 -29 -23 -39 -24
-39 -4 0 8 -4 15 -9 15 -5 0 -14 -7 -21 -15 -7 -8 -19 -15 -26 -15 -8 0 -14
-8 -14 -18 0 -16 -37 -48 -46 -40 -2 3 1 19 6 37 8 28 7 32 -8 29 -9 -2 -18
-12 -20 -23 -2 -11 -7 -29 -12 -40 -4 -11 -11 -28 -14 -37 -3 -10 -10 -18 -17
-18 -6 0 -8 7 -5 16 9 23 -83 15 -98 -8 -15 -24 0 -34 29 -18 19 10 30 11 50
2 14 -7 43 -12 63 -12 50 0 105 -44 96 -77 -8 -29 -15 -29 -44 2 -26 28 -41
31 -70 13 -15 -10 -22 -9 -38 5 -10 9 -30 17 -43 17 -14 0 -34 7 -45 15 -10 8
-27 15 -38 15 -15 0 -17 5 -12 30 4 23 2 30 -10 30 -8 0 -17 -7 -20 -15 -7
-17 -44 -21 -44 -4 0 31 56 99 82 99 28 0 48 -11 48 -27 0 -11 6 -14 23 -9 12
3 32 6 44 6 16 0 27 10 36 33 21 48 41 61 86 53 34 -5 43 -2 82 33 55 48 72
54 82 28 5 -14 1 -27 -13 -43z m-3258 -41 c34 -31 13 -93 -33 -93 -10 0 -19
-7 -19 -15 0 -23 -28 -18 -55 10 -31 30 -32 68 -3 95 27 25 84 27 110 3z
m3338 -13 c0 -5 -7 -7 -15 -4 -8 4 -12 10 -9 15 6 11 24 2 24 -11z m-2555 1
c7 -12 -36 -252 -49 -269 -5 -7 -19 -12 -30 -11 -12 2 -37 -7 -56 -19 -42 -26
-49 -27 -78 -6 -29 20 -28 55 2 120 25 53 60 87 114 109 17 8 32 21 32 29 0
17 34 56 49 56 6 0 12 -4 16 -9z m1135 -97 c0 -4 -8 -13 -17 -19 -17 -13 -17
-14 1 -34 13 -14 16 -28 12 -45 -7 -29 -41 -52 -51 -35 -5 7 -14 4 -27 -7 -16
-15 -22 -16 -40 -5 -18 11 -20 11 -15 -2 7 -18 -19 -31 -29 -15 -4 7 -9 6 -14
-2 -15 -24 -28 0 -23 43 4 29 2 39 -5 32 -6 -5 -12 -28 -14 -49 -4 -48 -28
-62 -28 -17 0 20 -5 31 -14 31 -16 0 -26 -21 -26 -55 0 -26 -15 -41 -25 -25
-11 17 7 150 22 166 19 18 43 18 43 -1 0 -8 -7 -15 -15 -15 -16 0 -21 -35 -7
-44 11 -7 27 6 35 26 3 9 21 21 39 27 18 5 27 10 21 10 -15 1 -18 31 -3 31 6
0 10 -6 10 -12 0 -9 4 -8 10 2 9 13 12 12 25 -4 12 -16 17 -17 30 -6 8 7 25
10 39 6 16 -4 26 -1 30 9 5 14 36 22 36 9z m-1564 -25 c9 -16 -31 -53 -50 -46
-20 8 -20 21 0 41 18 19 40 21 50 5z m192 -11 c34 -34 -19 -113 -93 -139 -27
-10 -35 -18 -33 -34 3 -21 21 -24 66 -10 36 12 27 -20 -12 -39 -100 -47 -155
14 -107 120 35 77 143 138 179 102z m2062 -33 c6 -8 9 -23 5 -35 -6 -19 -5
-20 13 -9 16 10 26 7 65 -20 25 -17 50 -31 55 -31 28 0 14 -33 -39 -98 -39
-46 -65 -69 -74 -65 -23 8 -18 21 27 75 33 40 39 52 27 59 -21 13 -23 12 -65
-41 -21 -27 -45 -49 -52 -50 -29 -1 -22 32 17 77 30 35 37 50 29 60 -6 7 -17
13 -25 13 -7 0 -16 7 -19 15 -4 8 -10 15 -14 15 -5 0 -3 -13 3 -29 20 -54 -41
-109 -92 -81 -34 18 -23 88 12 74 9 -3 18 -13 21 -22 2 -10 2 0 -1 21 -4 31
-1 43 18 63 25 27 70 32 89 9z m-2480 -40 c-6 -7 -26 -16 -44 -19 -47 -9 -64
-26 -72 -70 -7 -38 -6 -39 17 -32 13 3 38 9 54 13 50 11 13 -23 -40 -36 -25
-6 -45 -13 -45 -15 0 -2 -5 -27 -10 -56 -11 -60 -24 -80 -51 -80 -15 0 -18 5
-14 23 2 12 14 69 26 127 11 58 25 110 30 115 13 13 141 53 152 47 4 -2 3 -10
-3 -17z m214 0 c-8 -122 -47 -226 -75 -198 -8 8 -8 28 0 75 18 107 14 117 -32
74 -24 -22 -33 -44 -57 -142 -10 -40 -42 -65 -55 -44 -3 5 2 49 11 97 17 88
40 128 68 117 7 -3 19 2 26 11 7 8 25 15 41 15 15 0 31 5 34 11 11 17 40 5 39
-16z m1226 9 c0 -4 -8 -13 -17 -19 -17 -13 -17 -14 0 -32 21 -24 22 -42 2 -70
-18 -25 -80 -39 -101 -22 -11 9 -14 8 -14 -6 0 -9 -6 -15 -12 -12 -9 2 -12 20
-10 53 2 36 0 45 -7 34 -6 -8 -11 -32 -11 -53 0 -31 -4 -39 -26 -47 -14 -6
-27 -10 -29 -10 -2 0 -5 21 -7 48 l-3 47 -9 -50 c-5 -27 -14 -53 -20 -58 -22
-14 -148 -48 -162 -43 -8 3 -14 2 -14 -3 0 -11 -50 -32 -61 -26 -16 10 -10 79
10 112 11 18 30 33 43 35 15 2 24 11 26 26 2 12 10 22 17 22 7 0 16 -10 18
-22 4 -20 4 -19 6 5 0 17 7 27 16 27 12 0 14 -8 9 -40 -8 -48 5 -52 26 -7 11
22 22 32 40 34 29 2 83 19 124 41 23 12 30 12 37 1 6 -11 13 -9 32 9 14 13 30
20 39 17 9 -4 19 -2 23 4 7 12 35 15 35 5z m-190 -19 c0 -8 -4 -15 -10 -15 -5
0 -10 7 -10 15 0 8 5 15 10 15 6 0 10 -7 10 -15z m1440 -92 c48 -33 49 -42 11
-85 -15 -18 -36 -48 -45 -65 -10 -21 -24 -33 -36 -33 -22 0 -25 12 -9 42 16
29 0 36 -20 9 -18 -24 -57 -24 -49 0 7 22 103 148 113 148 6 1 22 -7 35 -16z
m-1750 -2 c0 -5 -5 -11 -11 -13 -6 -2 -14 -37 -20 -77 -9 -78 -12 -86 -27 -78
-5 4 -5 34 -1 69 4 37 4 64 -2 66 -13 5 -11 30 4 35 21 9 57 7 57 -2z m1929
-96 c89 -46 100 -59 79 -93 -9 -15 -27 -48 -39 -74 -14 -33 -28 -48 -40 -48
-22 0 -26 29 -7 48 6 6 8 15 4 19 -4 5 -16 -4 -27 -19 -20 -27 -49 -29 -49 -3
0 8 14 37 32 65 30 49 31 51 12 65 -24 17 -43 2 -24 -20 16 -20 -5 -48 -30
-40 -11 4 -23 -3 -34 -20 -19 -28 -34 -32 -42 -10 -5 12 82 164 93 165 2 0 34
-16 72 -35z m2639 5 c28 -17 33 -25 30 -52 -4 -39 -23 -47 -32 -13 -4 14 -11
25 -17 25 -20 0 -69 -31 -79 -50 -6 -11 -17 -20 -25 -20 -18 0 -31 20 -18 29
5 3 20 23 32 44 20 32 46 53 71 56 3 1 20 -8 38 -19z m-4885 -9 c-6 -25 11
-35 27 -16 7 8 22 15 34 15 12 0 27 5 33 11 6 6 16 8 23 4 8 -5 6 -11 -7 -20
-17 -13 -17 -15 -2 -42 19 -32 10 -70 -18 -79 -10 -3 -26 -10 -35 -15 -23 -12
-48 -1 -48 21 0 26 -15 33 -30 15 -10 -12 -10 -18 0 -30 15 -19 3 -37 -20 -30
-10 3 -21 1 -25 -5 -4 -6 -14 -9 -22 -6 -8 3 -25 -1 -38 -10 -14 -9 -32 -13
-42 -10 -9 4 -20 1 -24 -5 -4 -6 -22 -12 -40 -13 -20 -1 -41 -9 -50 -20 -11
-13 -22 -17 -35 -12 -16 6 -15 9 11 31 26 20 28 26 17 42 -34 50 -36 62 -15
91 23 31 53 41 53 18 0 -9 -7 -16 -15 -16 -21 0 -29 -24 -15 -49 14 -27 27
-27 36 2 11 38 35 57 71 57 l34 0 -7 -46 c-5 -34 -4 -45 5 -40 6 4 11 22 11
41 0 42 9 65 25 65 7 0 16 12 20 28 l7 27 15 -23 c15 -21 17 -22 34 -6 11 10
19 23 19 31 0 7 4 13 9 13 5 0 7 -8 4 -19z m197 -20 c0 -14 -18 -23 -30 -16
-6 4 -8 11 -5 16 8 12 35 12 35 0z m2187 -43 c4 -7 6 -22 4 -33 -3 -19 -2 -19
16 -2 22 20 39 22 49 6 3 -6 -16 -34 -44 -62 -27 -29 -55 -62 -61 -74 -12 -24
-35 -30 -46 -13 -4 6 0 21 7 33 8 12 20 49 27 82 7 33 15 63 18 68 6 11 21 8
30 -5z m2343 -36 c0 -4 25 -22 54 -40 30 -18 64 -44 75 -59 22 -27 28 -87 11
-98 -5 -3 -10 1 -10 10 0 9 -9 33 -20 54 -14 27 -27 40 -48 44 -31 6 -102 66
-102 86 0 6 9 11 20 11 11 0 20 -3 20 -8z m-5192 -82 c12 24 24 35 39 35 13 0
28 6 35 13 7 7 16 12 20 12 13 0 9 -28 -4 -33 -10 -3 -10 -9 0 -26 26 -45 9
-91 -35 -91 -13 0 -23 -5 -23 -11 0 -7 -9 -9 -24 -5 -13 3 -26 2 -28 -3 -2 -5
-18 -12 -35 -16 -32 -6 -33 -5 -35 27 l-1 33 -4 -30 c-3 -25 -12 -33 -46 -48
-51 -21 -57 -21 -57 -2 0 18 -16 20 -24 3 -3 -7 -3 6 0 28 6 44 -10 69 -27 43
-5 -8 -9 -9 -9 -3 0 6 7 17 15 24 12 10 18 10 32 -1 13 -11 17 -11 20 -1 3 6
9 12 15 12 6 0 7 -8 3 -17 -11 -28 -15 -73 -7 -73 19 0 32 27 32 67 0 43 4 47
48 46 6 -1 12 8 12 19 0 10 -4 16 -10 13 -5 -3 -10 1 -10 10 0 12 7 15 28 13
20 -2 26 -8 24 -23 -1 -11 -5 -42 -9 -69 -4 -32 -3 -47 4 -43 6 4 13 35 15 71
7 84 22 107 26 41 l4 -50 16 35z m3012 15 l5 -40 14 33 c15 35 23 39 39 19 8
-9 -1 -34 -31 -92 -46 -88 -69 -101 -77 -45 -5 34 -6 34 -18 13 -14 -26 -42
-31 -42 -9 0 8 16 49 37 91 41 87 65 96 73 30z m168 -55 l3 -32 30 28 c25 24
33 26 57 18 23 -8 27 -16 30 -54 l4 -45 12 35 c10 30 16 35 40 33 40 -3 56
-20 57 -62 l1 -36 12 35 c8 23 20 36 34 38 27 4 28 -8 2 -78 -19 -53 -16 -69
13 -70 5 0 7 -10 5 -22 -3 -20 -8 -23 -43 -20 -53 4 -59 13 -41 57 22 52 20
55 -9 13 -29 -42 -52 -52 -89 -39 -30 12 -31 19 -11 68 19 45 12 56 -9 14 -24
-45 -61 -67 -91 -53 -21 10 -25 19 -25 53 l0 41 -26 -31 c-30 -35 -63 -40 -88
-12 -32 36 8 140 64 168 34 17 64 -4 68 -47z m-3448 -55 c6 4 7 -7 3 -25 -5
-26 -2 -32 16 -37 11 -3 18 -9 15 -14 -10 -17 -35 -9 -43 14 -9 22 -9 22 -16
-5 -10 -39 -21 -35 -29 12 -7 44 -22 53 -29 18 -3 -13 -4 2 -3 32 1 59 16 70
28 21 5 -16 15 -35 25 -42 15 -13 16 -10 11 33 -3 26 -3 50 1 54 3 3 7 -10 9
-30 2 -20 7 -34 12 -31z m5210 20 c0 -16 -43 -31 -59 -20 -18 10 -12 23 12 28
41 8 47 7 47 -8z m1601 -67 c-28 -60 -76 -129 -84 -121 -15 14 -5 41 29 78 20
22 42 52 51 68 23 45 27 24 4 -25z m-2913 27 c2 -2 1 -13 -3 -24 -5 -15 -15
-21 -38 -21 -29 -1 -30 -2 -12 -12 28 -16 28 -14 20 -38 -5 -15 -12 -19 -25
-15 -10 3 -21 1 -25 -4 -3 -6 6 -13 20 -17 26 -6 31 -19 17 -42 -13 -20 -92
-5 -92 18 0 18 38 147 47 164 5 7 82 0 91 -9z m1585 -12 c4 -2 7 -9 7 -15 0
-7 -19 -9 -56 -5 -45 5 -56 3 -61 -10 -8 -21 28 -50 73 -59 27 -5 32 -9 24
-19 -16 -19 -55 -26 -82 -16 -63 24 -84 73 -52 120 15 21 21 22 78 16 33 -4
64 -9 69 -12z m-1493 -14 c7 -11 9 -27 6 -35 -7 -17 -33 -18 -39 -1 -2 6 -8 9
-13 4 -4 -4 2 -14 14 -23 45 -31 18 -114 -38 -114 -32 0 -50 17 -50 47 0 27
16 30 42 6 25 -22 23 2 -2 27 -11 11 -20 31 -20 45 0 54 77 88 100 44z m1260
11 c0 -5 -2 -10 -4 -10 -2 0 -12 -3 -22 -7 -16 -6 -17 -5 -4 10 17 19 30 22
30 7z m-5343 -62 c-3 -7 -5 -2 -5 12 0 14 2 19 5 13 2 -7 2 -19 0 -25z m4933
8 c0 -2 -7 -6 -15 -10 -8 -3 -15 -1 -15 4 0 6 7 10 15 10 8 0 15 -2 15 -4z
m457 -38 c-5 -15 -46 -13 -61 2 -7 7 3 10 28 10 26 0 36 -4 33 -12z m349 -45
c-11 -11 -19 6 -11 24 8 17 8 17 12 0 3 -10 2 -21 -1 -24z m-1014 0 c53 -19
146 -103 114 -103 -10 0 -33 9 -50 19 -17 10 -68 31 -113 47 -93 31 -110 54
-40 54 23 0 63 -8 89 -17z m597 -22 c25 -16 5 -41 -27 -35 -24 5 -60 -6 -114
-34 -5 -2 -8 2 -8 10 0 7 19 26 42 41 43 27 82 34 107 18z m328 -38 c3 -8 -1
-21 -10 -30 -13 -13 -20 -13 -53 -2 -22 8 -42 18 -46 24 -13 17 -9 33 10 37
27 6 93 -13 99 -29z m-201 11 c18 -9 38 -22 44 -30 10 -11 6 -13 -18 -9 -35 4
-64 18 -82 39 -10 13 -10 16 5 16 9 0 32 -7 51 -16z m-486 -12 c0 -4 -6 -14
-12 -21 -11 -11 -10 -14 1 -18 19 -8 51 -41 51 -54 0 -6 -7 -8 -16 -5 -18 7
-70 -22 -100 -55 l-19 -22 28 7 c34 8 47 -16 23 -43 -9 -10 -19 -32 -20 -47
-2 -16 -4 -33 -5 -37 0 -5 -11 -7 -23 -5 -19 2 -23 9 -23 41 0 20 -3 37 -7 37
-14 0 -8 50 8 83 9 18 32 47 50 65 19 18 33 36 32 40 -2 12 14 42 23 42 5 0 9
-4 9 -8z m1994 -55 c-6 -17 -44 -32 -64 -25 -5 1 2 17 17 34 22 25 31 29 41
20 7 -7 10 -20 6 -29z m-1238 -8 c3 -6 -5 -21 -19 -33 -25 -20 -57 -84 -57
-112 0 -8 9 -23 21 -35 20 -20 22 -20 40 -3 17 15 19 16 19 1 0 -9 -11 -24
-25 -33 -21 -14 -30 -14 -55 -4 -44 18 -59 44 -50 85 4 19 6 36 3 39 -2 2 3
18 11 34 29 55 93 91 112 61z m-1049 -37 c-10 -10 -17 -23 -17 -28 -1 -12 -38
-54 -74 -81 -29 -23 -86 -31 -86 -13 0 6 11 10 25 10 26 0 52 17 94 64 34 38
64 66 69 66 3 0 -2 -8 -11 -18z m543 9 c0 -5 -8 -12 -19 -16 -10 -3 -32 -25
-47 -48 -38 -56 -54 -72 -54 -56 0 24 51 99 78 113 32 18 42 19 42 7z m100
-53 c7 -24 14 -57 15 -74 3 -44 34 -83 68 -84 22 0 27 4 27 25 0 14 5 25 10
25 6 0 10 -13 10 -29 0 -51 -63 -79 -106 -46 -10 8 -29 15 -41 15 -12 0 -24 4
-27 9 -3 5 2 8 11 7 11 0 17 6 17 17 -4 60 -3 58 -24 47 -18 -9 -20 -8 -20 15
0 15 7 34 16 42 11 11 14 28 11 55 -6 50 15 35 33 -24z m280 45 c-1 -20 -19
-32 -62 -38 -47 -7 -56 -2 -40 21 11 18 102 32 102 17z m-1390 -22 c0 -6 -4
-13 -10 -16 -5 -3 -10 1 -10 9 0 9 5 16 10 16 6 0 10 -4 10 -9z m858 -33 c-5
-15 -48 -24 -48 -10 0 14 12 22 33 22 10 0 17 -5 15 -12z m598 -283 c-3 -13
-2 -27 4 -30 15 -9 12 -25 -5 -25 -11 0 -15 12 -15 46 0 30 4 43 11 38 6 -3 8
-17 5 -29z m172 22 c17 -11 15 -52 -3 -67 -18 -15 -35 -5 -35 21 0 25 -15 24
-34 -3 l-16 -22 0 22 c0 28 -15 28 -34 0 -16 -22 -16 -21 -16 19 l0 41 63 -2
c34 -1 68 -5 75 -9z m72 -27 c0 -33 -3 -37 -25 -37 -22 0 -25 4 -25 37 0 33 3
38 25 38 22 0 25 -5 25 -38z m625 30 c3 -5 -1 -10 -9 -10 -8 0 -18 5 -21 10
-3 6 1 10 9 10 8 0 18 -4 21 -10z m65 -23 c0 -4 4 -6 9 -3 13 9 23 -26 11 -38
-7 -7 -10 -5 -10 5 0 8 -9 22 -20 32 -26 22 -33 22 -19 -1 8 -13 9 -24 2 -37
-9 -15 -11 -12 -17 19 -9 46 -1 59 24 43 11 -6 20 -15 20 -20z m20 23 c0 -5
-4 -10 -10 -10 -5 0 -10 5 -10 10 0 6 5 10 10 10 6 0 10 -4 10 -10z m-94 -68
c-11 -10 -15 4 -8 28 l7 25 3 -23 c2 -13 1 -26 -2 -30z"/>
<path d="M3932 4798 c-19 -19 -15 -96 6 -107 26 -14 42 0 48 41 10 58 -23 97
-54 66z"/>
<path d="M2630 4715 c-10 -12 -10 -19 -1 -28 14 -14 44 2 49 27 4 21 -31 22
-48 1z"/>
<path d="M3500 4791 c-15 -30 -12 -66 9 -92 19 -23 19 -24 40 -5 36 33 22 116
-19 116 -11 0 -24 -9 -30 -19z m39 -44 c12 -15 12 -17 -3 -11 -9 3 -16 13 -16
22 0 8 1 13 3 11 1 -2 9 -12 16 -22z"/>
<path d="M3716 4794 c-17 -43 -1 -114 25 -114 32 0 50 70 29 111 -13 23 -46
25 -54 3z"/>
<path d="M4241 4797 c-15 -19 -7 -24 29 -19 25 3 28 7 19 18 -14 18 -33 18
-48 1z"/>
<path d="M3918 3883 c-7 -17 -12 -78 -13 -147 0 -130 10 -153 41 -94 23 42 33
230 14 253 -18 22 -29 19 -42 -12z"/>
<path d="M3026 3647 c-19 -127 -18 -138 10 -119 29 19 45 102 28 146 -12 31
-32 16 -38 -27z"/>
<path d="M3915 3563 c-22 -12 -49 -23 -60 -23 -18 0 -17 -2 7 -23 27 -23 40
-70 24 -95 -13 -22 0 -25 32 -8 25 13 32 24 37 58 4 24 5 59 3 78 l-3 36 -40
-23z"/>
<path d="M2226 3458 c-14 -46 -28 -221 -20 -254 4 -21 7 -49 6 -61 -3 -28 22
-31 33 -5 10 24 19 274 11 306 -7 27 -24 35 -30 14z"/>
<path d="M3850 3410 c-13 -8 -12 -10 3 -10 9 0 17 5 17 10 0 12 -1 12 -20 0z"/>
<path d="M1812 3303 c-32 -62 -38 -272 -9 -290 18 -11 45 35 56 100 15 85 14
131 -3 172 -16 39 -31 44 -44 18z"/>
<path d="M3838 3193 c-16 -19 -38 -58 -38 -67 0 -14 23 -4 45 19 24 23 34 65
17 65 -5 0 -16 -8 -24 -17z"/>
<path d="M3501 3094 c-28 -20 -51 -72 -51 -114 0 -24 4 -30 21 -30 22 0 52 56
64 123 8 41 1 45 -34 21z"/>
<path d="M3253 3018 c-25 -27 -47 -101 -38 -129 9 -27 43 -21 66 11 19 26 39
106 31 128 -6 19 -37 14 -59 -10z"/>
<path d="M3023 2948 c-38 -40 -58 -128 -33 -143 36 -22 94 58 88 123 -4 45
-25 52 -55 20z"/>
<path d="M2427 2779 c-33 -19 -62 -121 -41 -142 14 -13 43 15 57 55 34 94 30
114 -16 87z"/>
<path d="M3588 2765 c-14 -21 -20 -85 -9 -85 6 0 14 6 17 14 7 19 1 83 -8 71z"/>
<path d="M3547 2753 c-4 -3 -7 -11 -7 -17 0 -6 5 -5 12 2 6 6 9 14 7 17 -3 3
-9 2 -12 -2z"/>
<path d="M3627 2716 c-6 -15 1 -26 15 -26 4 0 8 9 8 20 0 23 -15 27 -23 6z"/>
<path d="M2227 2727 c-20 -14 -51 -87 -38 -87 11 0 71 67 71 80 0 16 -17 20
-33 7z"/>
<path d="M3258 2618 c-16 -16 -25 -48 -13 -48 19 0 55 26 55 41 0 25 -22 29
-42 7z"/>
<path d="M3006 2558 c-6 -28 -2 -48 8 -37 10 11 17 69 8 69 -5 0 -12 -14 -16
-32z"/>
<path d="M2928 2540 c-2 -23 0 -46 4 -53 4 -7 8 12 8 41 0 62 -6 68 -12 12z"/>
<path d="M2858 2545 c-3 -5 -9 -25 -13 -42 -8 -39 11 -46 21 -9 7 28 1 66 -8
51z"/>
<path d="M4540 2535 c0 -8 5 -15 10 -15 6 0 10 7 10 15 0 8 -4 15 -10 15 -5 0
-10 -7 -10 -15z"/>
<path d="M4775 2411 c-6 -11 9 -23 19 -14 9 9 7 23 -3 23 -6 0 -12 -4 -16 -9z"/>
<path d="M2485 2430 c-3 -5 -1 -10 4 -10 6 0 11 5 11 10 0 6 -2 10 -4 10 -3 0
-8 -4 -11 -10z"/>
<path d="M2567 2412 c-33 -36 -12 -57 28 -28 11 8 16 19 12 30 -8 21 -20 20
-40 -2z"/>
<path d="M2442 2370 c0 -19 2 -27 5 -17 2 9 2 25 0 35 -3 9 -5 1 -5 -18z"/>
<path d="M2285 2349 c-4 -17 -4 -33 -1 -36 9 -9 12 -2 19 35 8 41 -9 42 -18 1z"/>
<path d="M2060 2299 c0 -5 5 -7 10 -4 6 3 10 8 10 11 0 2 -4 4 -10 4 -5 0 -10
-5 -10 -11z"/>
<path d="M2078 2271 c-36 -36 -13 -55 30 -25 18 13 21 19 11 30 -14 18 -20 17
-41 -5z"/>
<path d="M1923 2230 c0 -25 2 -35 4 -22 2 12 2 32 0 45 -2 12 -4 2 -4 -23z"/>
<path d="M2020 2230 c0 -5 5 -10 10 -10 6 0 10 5 10 10 0 6 -4 10 -10 10 -5 0
-10 -4 -10 -10z"/>
<path d="M5144 2235 c-19 -45 -8 -66 17 -34 20 26 25 69 8 69 -5 0 -17 -16
-25 -35z"/>
<path d="M5264 2195 c-17 -43 -17 -45 1 -45 17 0 35 30 35 59 0 32 -19 25 -36
-14z"/>
<path d="M5400 2196 c0 -2 -7 -20 -15 -40 -13 -31 -13 -36 -1 -36 8 0 19 14
25 31 14 39 14 49 1 49 -5 0 -10 -2 -10 -4z"/>
<path d="M6540 1785 c0 -8 2 -15 4 -15 2 0 6 7 10 15 3 8 1 15 -4 15 -6 0 -10
-7 -10 -15z"/>
<path d="M7490 1541 c0 -11 5 -23 10 -26 6 -4 10 5 10 19 0 14 -4 26 -10 26
-5 0 -10 -9 -10 -19z"/>
<path d="M7188 5433 c6 -2 18 -2 25 0 6 3 1 5 -13 5 -14 0 -19 -2 -12 -5z"/>
<path d="M7730 5405 c-30 -19 -51 -35 -46 -35 6 0 -9 -14 -31 -30 -31 -23 -49
-29 -70 -25 -22 4 -24 3 -8 -4 17 -7 9 -14 -55 -44 -41 -19 -92 -41 -112 -48
-41 -14 -47 -29 -23 -53 14 -14 20 -13 63 7 147 69 316 167 305 178 -4 4 -19
9 -33 11 -25 4 -24 4 10 26 19 12 46 22 58 22 14 0 22 5 20 12 -8 22 -23 18
-78 -17z"/>
<path d="M6889 5383 c-11 -31 -5 -54 21 -78 10 -9 16 -22 14 -29 -3 -7 2 -19
11 -26 8 -7 15 -11 16 -9 4 32 6 109 2 124 -2 11 -15 25 -29 32 -23 10 -26 9
-35 -14z"/>
<path d="M7085 5390 c3 -5 11 -10 16 -10 6 0 7 5 4 10 -3 6 -11 10 -16 10 -6
0 -7 -4 -4 -10z"/>
<path d="M7355 5340 c-72 -40 -95 -70 -54 -70 29 0 209 86 209 99 0 25 -86 9
-155 -29z"/>
<path d="M7324 5355 c-14 -11 -15 -14 -4 -14 8 0 24 6 34 14 15 11 16 15 5 15
-8 0 -24 -7 -35 -15z"/>
<path d="M6760 5345 c-10 -12 -10 -18 0 -30 26 -31 59 -11 40 25 -13 24 -23
25 -40 5z"/>
<path d="M6994 5322 c-11 -20 -7 -62 7 -62 13 0 11 -28 -2 -32 -21 -7 48 -218
71 -218 4 0 10 10 13 22 8 27 17 19 33 -29 9 -25 10 -42 3 -55 -5 -10 -6 -18
-2 -18 4 0 3 -4 -3 -8 -9 -5 -8 -10 1 -19 10 -9 15 0 24 43 7 29 10 58 6 64
-3 5 1 10 9 10 21 0 22 -97 1 -124 -16 -21 -19 -63 -7 -83 7 -12 18 14 53 131
11 37 11 81 0 104 -5 9 -16 34 -25 55 -15 35 -15 38 0 44 18 7 46 -7 52 -25 2
-7 -3 -12 -12 -12 -22 0 -20 -37 4 -67 11 -14 20 -34 20 -43 0 -10 6 -23 14
-29 22 -19 31 7 10 30 -20 22 -12 38 10 20 8 -7 20 -10 26 -6 14 9 3 82 -16
110 -8 11 -14 29 -14 40 0 25 -55 115 -70 115 -5 0 -10 7 -10 15 0 8 -4 15
-10 15 -16 0 -12 -59 7 -91 9 -15 13 -32 9 -36 -5 -4 -11 -2 -13 5 -3 6 -11
12 -18 12 -7 0 -15 -6 -18 -12 -2 -7 -11 2 -21 19 -9 18 -30 43 -46 55 -17 12
-30 27 -30 32 0 6 5 4 10 -4 8 -13 10 -13 10 1 0 9 -7 22 -15 29 -12 10 -15
10 -15 0 0 -9 -5 -8 -18 3 -16 15 -18 15 -28 -1z"/>
<path d="M7859 5277 c-42 -28 -106 -67 -142 -86 -37 -19 -67 -38 -67 -41 0 -4
11 -17 24 -29 21 -20 31 -22 74 -16 34 4 57 14 73 31 32 34 80 32 111 -4 31
-37 110 -67 137 -52 12 6 21 15 21 20 0 20 20 9 26 -14 3 -14 14 -32 24 -41
17 -16 21 -16 42 -1 31 22 58 21 58 -4 0 -25 28 -27 45 -3 7 10 26 16 46 16
19 0 39 4 45 8 6 5 29 15 52 23 52 19 91 7 114 -32 9 -15 26 -36 37 -46 18
-16 23 -17 37 -5 13 11 17 10 25 -4 6 -9 19 -17 29 -17 11 0 20 -4 20 -10 0
-5 -7 -10 -15 -10 -8 0 -15 -4 -15 -9 0 -15 43 -42 52 -33 5 5 7 60 6 123 l-3
114 -60 22 c-127 46 -623 154 -703 153 -9 0 -51 -24 -93 -53z"/>
<path d="M6716 5306 c3 -7 -2 -16 -10 -19 -15 -6 -75 -124 -103 -202 -7 -21
-26 -60 -40 -84 l-27 -46 27 18 c35 22 37 22 37 -10 0 -39 15 -19 45 61 14 38
44 95 66 126 21 31 39 66 39 78 0 12 6 22 13 22 8 1 6 5 -4 13 -9 7 -19 22
-23 35 -4 12 -11 22 -16 22 -5 0 -7 -6 -4 -14z"/>
<path d="M6572 5273 c-8 -27 -8 -40 0 -50 7 -9 7 -17 -2 -28 -6 -8 -10 -22 -8
-32 2 -12 13 -3 36 34 34 54 34 72 -1 101 -11 10 -16 5 -25 -25z"/>
<path d="M6840 5296 c0 -9 7 -16 16 -16 9 0 14 5 12 12 -6 18 -28 21 -28 4z"/>
<path d="M7485 5280 c-3 -6 1 -7 9 -4 18 7 21 14 7 14 -6 0 -13 -4 -16 -10z"/>
<path d="M7405 5245 c-16 -7 -23 -14 -14 -14 8 -1 24 6 35 14 24 18 18 18 -21
0z"/>
<path d="M6878 5208 c-10 -10 -18 -23 -18 -29 0 -5 -4 -7 -10 -4 -5 3 -10 15
-10 26 0 11 -4 18 -9 15 -5 -3 -5 -21 -1 -41 4 -20 4 -38 -1 -41 -5 -3 -9 -21
-9 -39 0 -36 -43 -112 -108 -194 -41 -50 -43 -76 -12 -136 11 -22 20 -52 20
-67 0 -31 18 -113 32 -143 5 -11 12 -43 16 -69 4 -27 13 -51 20 -54 15 -5 15
20 1 72 -13 46 -16 157 -5 175 5 7 3 18 -3 24 -27 27 0 140 42 176 12 10 18 8
31 -10 14 -20 16 -21 22 -5 4 10 1 35 -5 57 -10 34 -15 38 -27 28 -11 -9 -18
-8 -34 6 -11 10 -20 22 -20 26 0 12 53 37 67 32 7 -3 13 10 15 34 2 21 7 38
13 38 9 0 43 -83 45 -113 3 -40 1 -92 -5 -162 -7 -81 4 -130 30 -130 13 0 15
11 10 68 -3 37 -2 109 1 160 l7 94 21 -21 c18 -18 22 -36 24 -119 3 -63 9
-102 17 -112 11 -12 12 -34 6 -93 -9 -94 0 -113 21 -49 23 68 19 142 -7 142
-11 0 -14 14 -13 55 1 44 5 55 16 50 25 -9 8 51 -47 168 -28 59 -51 112 -51
118 0 18 -40 83 -52 84 -7 1 -21 -7 -30 -17z m-108 -337 c0 -13 -49 -43 -60
-36 -20 12 -9 34 18 38 15 2 30 5 35 6 4 0 7 -3 7 -8z"/>
<path d="M6438 5192 c-11 -2 -18 -13 -18 -27 0 -25 21 -38 46 -28 11 4 15 1
12 -12 -4 -23 20 -32 28 -11 9 22 -14 73 -34 78 -9 2 -25 2 -34 0z"/>
<path d="M6772 5177 c-12 -13 -22 -29 -22 -35 0 -7 -8 -20 -17 -30 -25 -25
-59 -92 -66 -127 -3 -16 -9 -38 -12 -47 -12 -32 28 -20 50 14 54 85 75 125 75
148 0 14 9 36 20 50 38 48 13 71 -28 27z"/>
<path d="M7343 5106 c8 -52 27 -71 27 -27 0 18 -8 40 -17 49 -15 16 -16 14
-10 -22z"/>
<path d="M6528 5109 c-19 -10 -24 -44 -9 -53 13 -9 33 20 29 43 -2 16 -7 18
-20 10z"/>
<path d="M6325 5060 c-10 -12 -25 -18 -32 -16 -7 3 -15 1 -17 -3 -3 -5 -16 -6
-30 -4 -13 3 -26 0 -30 -5 -3 -6 -24 -8 -46 -5 -22 3 -40 2 -40 -3 0 -24 22
-84 31 -84 6 0 7 15 3 38 -7 34 -6 36 9 23 10 -7 17 -22 17 -32 0 -11 5 -19
10 -19 6 0 10 5 10 12 0 6 9 3 20 -7 19 -17 21 -17 40 0 11 10 20 14 20 10 0
-5 5 -4 11 2 6 6 18 9 27 6 12 -5 14 0 8 29 -8 43 6 52 58 36 44 -14 68 0 46
27 -19 23 -92 20 -115 -5z m-65 -71 c0 -12 -27 -11 -35 1 -11 17 5 32 21 19 8
-6 14 -15 14 -20z"/>
<path d="M6078 5012 c-10 -2 -18 -10 -18 -18 0 -8 -4 -14 -10 -14 -5 0 -7 7
-4 15 7 17 3 18 -20 9 -9 -3 -16 -16 -17 -28 0 -14 -2 -16 -6 -6 -3 8 -11 18
-16 22 -14 9 -47 -9 -47 -25 0 -7 -10 -23 -21 -37 l-20 -25 3 25 c2 14 9 24
16 23 18 -4 15 17 -4 24 -10 4 -22 0 -28 -9 -6 -8 -17 -13 -25 -10 -11 4 -13
-2 -8 -27 5 -23 3 -31 -8 -31 -9 0 -15 10 -15 26 0 14 -4 23 -9 20 -5 -3 -7
-15 -4 -26 3 -11 0 -20 -6 -20 -6 0 -12 5 -12 10 -1 6 -2 15 -3 22 -2 18 -22
20 -35 4 -8 -10 -9 -20 -2 -33 5 -10 12 -26 15 -35 8 -25 37 -22 43 3 6 21 7
21 20 3 14 -18 15 -18 34 5 17 20 22 22 29 11 7 -12 13 -11 33 8 17 16 26 19
34 11 8 -8 17 -8 31 0 11 6 28 8 36 5 9 -4 23 -1 31 6 8 7 21 10 29 7 24 -9
42 21 28 44 -7 11 -10 24 -7 28 6 11 -15 19 -37 13z m-101 -64 c-3 -8 -6 -5
-6 6 -1 11 2 17 5 13 3 -3 4 -12 1 -19z m126 12 c7 0 -1 -7 -17 -15 -15 -8
-32 -12 -38 -9 -14 9 13 36 29 29 8 -3 20 -5 26 -5z"/>
<path d="M7750 5005 c0 -10 -6 -23 -14 -29 -7 -6 -17 -24 -21 -41 l-6 -30 35
34 c40 38 44 52 21 71 -12 10 -15 9 -15 -5z"/>
<path d="M6496 4985 c4 -8 10 -15 15 -15 5 0 9 7 9 15 0 8 -7 15 -15 15 -9 0
-12 -6 -9 -15z"/>
<path d="M7618 4958 c-15 -17 -25 -34 -21 -37 3 -3 8 0 10 7 3 6 15 12 28 12
26 0 41 15 25 25 -6 4 -8 11 -5 16 14 22 -12 6 -37 -23z"/>
<path d="M8196 4972 c-4 -7 0 -19 8 -28 17 -17 19 -11 7 20 -5 14 -10 16 -15
8z"/>
<path d="M7465 4950 c3 -5 15 -10 26 -10 11 0 17 5 14 10 -3 6 -15 10 -26 10
-11 0 -17 -4 -14 -10z"/>
<path d="M6440 4911 c0 -26 17 -36 36 -21 12 11 12 14 -3 26 -25 19 -33 17
-33 -5z"/>
<path d="M5673 4909 c-5 -5 -22 -11 -37 -13 -14 -1 -29 -6 -33 -9 -3 -4 -15
-7 -25 -7 -11 0 -18 -7 -18 -20 0 -23 -10 -26 -28 -8 -21 21 -14 -10 10 -42
27 -37 42 -39 34 -5 -4 14 -3 31 1 38 5 8 9 3 13 -12 6 -27 38 -37 46 -16 3 8
13 11 21 8 13 -5 15 -1 9 23 -5 23 -4 25 4 11 16 -26 63 -47 81 -36 9 6 11 11
3 17 -6 4 -13 15 -17 25 -3 9 -13 17 -21 17 -10 0 -13 -6 -10 -15 5 -11 2 -13
-10 -9 -22 9 -20 35 4 41 11 3 20 9 20 14 0 12 -34 11 -47 -2z"/>
<path d="M8252 4895 c-45 -31 -45 -31 -38 -53 10 -30 91 -27 125 4 36 33 36
55 1 52 -15 -1 -34 3 -42 9 -10 8 -21 5 -46 -12z"/>
<path d="M6584 4895 c-4 -8 -3 -23 1 -32 7 -17 8 -16 15 2 5 11 9 26 9 33 1
17 -18 15 -25 -3z"/>
<path d="M8613 4854 c2 -31 -2 -48 -10 -51 -20 -8 -15 -31 8 -38 26 -9 27 -8
35 44 5 34 4 42 -5 36 -10 -6 -11 -3 -3 11 11 23 5 44 -14 44 -10 0 -13 -12
-11 -46z"/>
<path d="M8696 4893 c-12 -12 -6 -43 9 -43 8 0 15 9 15 19 0 21 -13 34 -24 24z"/>
<path d="M6146 4843 c3 -27 9 -51 13 -56 4 -4 19 6 34 23 31 34 33 40 12 40
-8 0 -20 9 -27 20 -24 38 -40 24 -32 -27z"/>
<path d="M6240 4874 c0 -15 18 -18 44 -8 25 10 19 19 -14 20 -19 1 -30 -4 -30
-12z"/>
<path d="M8512 4868 c3 -7 15 -15 27 -16 16 -3 22 1 19 10 -3 7 -15 15 -27 16
-16 3 -22 -1 -19 -10z"/>
<path d="M6497 4845 c-15 -14 -37 -25 -48 -25 -10 0 -19 -4 -19 -9 0 -5 -3
-16 -6 -24 -8 -22 27 -30 80 -16 39 10 46 15 46 36 0 18 -4 24 -15 19 -12 -4
-14 0 -9 19 8 31 6 31 -29 0z"/>
<path d="M7477 4857 c-3 -8 -2 -20 3 -27 6 -10 11 -8 19 8 14 27 14 32 -3 32
-8 0 -16 -6 -19 -13z"/>
<path d="M5450 4853 c0 -5 -11 -16 -25 -23 -19 -10 -23 -19 -19 -37 5 -19 2
-23 -17 -23 -19 0 -21 2 -9 10 13 9 13 11 0 19 -18 12 -30 5 -30 -20 0 -11 10
-24 23 -29 12 -5 16 -9 10 -9 -7 -1 -13 -5 -13 -11 0 -13 37 -13 45 0 3 5 12
7 21 3 8 -3 23 2 34 12 11 10 24 14 31 9 9 -5 10 -2 6 9 -4 11 -2 14 9 10 8
-3 14 1 14 10 0 26 -22 67 -36 67 -7 0 -19 3 -28 6 -9 3 -16 2 -16 -3z m19
-54 c10 -18 10 -23 0 -30 -19 -11 -32 0 -18 17 9 11 8 14 -5 14 -10 0 -14 5
-11 10 9 15 19 12 34 -11z"/>
<path d="M6063 4833 c3 -15 1 -36 -4 -45 -12 -21 0 -23 26 -4 16 12 17 17 6
45 -16 38 -35 41 -28 4z"/>
<path d="M7537 4842 c-3 -9 -16 -34 -28 -54 l-23 -38 24 -25 c13 -14 26 -25
29 -25 8 0 41 59 41 74 0 6 -9 20 -21 29 -16 14 -18 21 -9 32 6 8 7 16 2 19
-6 3 -12 -2 -15 -12z"/>
<path d="M7610 4846 c0 -27 20 -67 30 -61 5 3 10 22 10 41 0 27 -4 34 -20 34
-11 0 -20 -6 -20 -14z"/>
<path d="M8134 4838 c-4 -6 3 -19 16 -30 l23 -19 -21 -6 c-12 -3 -24 -14 -27
-25 -9 -27 12 -49 41 -42 18 5 24 2 24 -10 0 -10 8 -16 22 -16 12 0 30 -8 40
-17 12 -11 22 -13 29 -6 15 15 -6 59 -31 66 -16 4 -20 2 -16 -9 3 -8 -1 -14
-9 -14 -8 0 -15 6 -15 14 0 8 -5 16 -11 18 -9 3 -9 9 0 25 17 33 13 47 -18 66
-34 20 -38 21 -47 5z"/>
<path d="M6834 4803 c-9 -21 -17 -54 -19 -73 -1 -19 0 -23 2 -7 3 16 11 27 20
27 11 0 14 -6 10 -22 -4 -12 -4 -33 -1 -45 12 -46 20 -21 20 67 0 50 -3 90 -7
90 -5 0 -16 -17 -25 -37z"/>
<path d="M5685 4779 c-4 -6 -5 -12 -2 -15 2 -3 7 2 10 11 7 17 1 20 -8 4z"/>
<path d="M5952 4768 c6 -18 28 -21 28 -4 0 9 -7 16 -16 16 -9 0 -14 -5 -12
-12z"/>
<path d="M8540 4755 c0 -9 -11 -21 -25 -27 -14 -6 -25 -15 -25 -20 0 -12 18
-10 22 3 3 9 9 9 25 0 35 -18 41 -13 29 24 -11 36 -26 47 -26 20z"/>
<path d="M5220 4741 c-16 -31 -12 -59 10 -71 19 -10 20 -9 14 15 -5 19 -1 30
11 39 19 14 13 36 -10 36 -8 0 -19 -9 -25 -19z"/>
<path d="M8475 4749 c-10 -15 3 -25 16 -12 7 7 7 13 1 17 -6 3 -14 1 -17 -5z"/>
<path d="M7610 4734 c0 -9 7 -14 17 -12 25 5 28 28 4 28 -12 0 -21 -6 -21 -16z"/>
<path d="M5721 4719 c-13 -11 -22 -22 -19 -25 8 -8 78 28 72 38 -8 13 -27 9
-53 -13z"/>
<path d="M7766 4724 c-11 -8 -33 -14 -49 -14 -19 0 -27 -4 -24 -12 2 -7 14
-12 26 -11 12 2 24 -4 27 -12 9 -23 20 -18 34 14 16 39 10 53 -14 35z"/>
<path d="M7160 4700 c0 -19 11 -26 23 -14 8 8 -3 34 -14 34 -5 0 -9 -9 -9 -20z"/>
<path d="M8100 4705 c0 -9 5 -15 11 -13 6 2 11 8 11 13 0 5 -5 11 -11 13 -6 2
-11 -4 -11 -13z"/>
<path d="M8419 4697 c-13 -17 -18 -18 -38 -7 -23 12 -23 11 -17 -11 10 -33 10
-40 2 -72 -5 -20 -3 -27 8 -27 8 0 17 -7 20 -16 4 -12 13 -14 32 -10 29 8 52
-7 65 -41 13 -35 1 -53 -37 -53 -19 0 -34 5 -34 11 0 8 -5 7 -15 -1 -11 -9
-12 -15 -5 -20 6 -4 8 -14 4 -23 -4 -12 -1 -17 10 -17 18 0 22 -30 6 -46 -16
-16 6 -68 25 -60 9 3 15 0 15 -10 0 -8 10 -19 23 -24 17 -7 18 -9 4 -9 -30 -1
-85 26 -96 48 -7 11 -9 32 -5 46 5 20 2 25 -12 25 -24 0 -54 29 -47 46 3 9 0
12 -9 9 -9 -3 -31 4 -51 15 -23 13 -44 19 -57 15 -14 -5 -20 -2 -20 9 0 23
-31 20 -37 -4 -3 -10 -15 -22 -27 -26 -11 -3 -29 -13 -38 -21 -26 -23 -46 -10
-40 26 2 17 0 31 -4 31 -5 0 -29 -16 -53 -35 -24 -19 -53 -35 -65 -35 -12 0
-31 -7 -42 -15 -26 -17 -34 -11 -34 25 0 24 -6 29 -41 38 -34 9 -41 8 -47 -6
-7 -19 -27 -42 -37 -42 -3 0 -3 5 1 11 3 6 0 15 -7 20 -22 14 -28 11 -22 -12
5 -17 2 -19 -18 -14 -28 7 -54 -11 -64 -42 -5 -19 0 -26 29 -40 20 -9 36 -20
36 -25 0 -14 18 -9 56 17 20 14 43 25 51 25 13 0 36 -21 71 -64 9 -11 21 -15
34 -10 13 4 24 0 34 -14 7 -11 28 -22 45 -24 27 -4 29 -3 16 7 -10 7 -17 24
-17 39 0 24 4 27 27 24 19 -2 32 -12 41 -31 15 -31 36 -26 28 7 -3 13 1 31 9
42 14 19 14 19 29 -1 21 -27 21 -25 -19 -77 -30 -39 -34 -49 -26 -71 l10 -26
78 33 c43 19 94 37 113 40 l35 7 -31 -19 c-17 -11 -41 -23 -53 -27 -14 -4 -20
-12 -17 -21 4 -10 -2 -14 -20 -14 -19 0 -25 -4 -20 -15 3 -9 0 -15 -9 -15 -8
0 -22 -11 -30 -24 -15 -23 -15 -27 0 -49 11 -18 14 -36 10 -60 -5 -27 -3 -38
12 -48 10 -8 19 -26 20 -41 1 -30 -6 -35 -24 -17 -8 8 -26 -9 -66 -58 -67 -82
-80 -113 -67 -149 6 -15 8 -41 4 -60 -5 -25 -1 -40 15 -60 21 -27 28 -54 14
-54 -13 1 -73 86 -73 102 0 9 7 21 15 28 20 16 19 20 -10 54 -14 17 -25 42
-25 59 0 22 -4 28 -15 23 -20 -7 -76 43 -56 51 8 3 27 18 43 33 24 23 26 29
12 34 -25 10 -31 7 -37 -14 -3 -11 -9 -20 -14 -18 -17 4 -53 -14 -53 -27 0 -8
-9 -29 -21 -47 l-20 -33 5 30 c3 17 8 48 12 69 l7 40 -28 -22 c-15 -12 -42
-24 -61 -28 -19 -3 -34 -10 -34 -15 0 -5 -6 -9 -13 -9 -8 0 -24 -11 -36 -24
l-23 -25 28 -25 c16 -14 35 -26 42 -26 7 0 29 -16 49 -35 33 -32 35 -37 29
-77 -5 -36 -12 -46 -38 -57 -17 -8 -33 -22 -35 -32 -4 -12 -14 -17 -36 -17
-18 1 -43 -2 -57 -6 l-25 -8 28 26 c15 14 39 26 52 26 13 0 26 4 29 9 9 14
-20 21 -53 11 -24 -7 -31 -5 -31 6 0 8 -6 14 -14 14 -8 0 -20 16 -26 35 -6 19
-19 37 -30 40 -21 7 -31 46 -18 69 6 10 5 16 -2 16 -6 0 -15 11 -20 25 -5 14
-14 26 -20 26 -20 3 -25 4 -39 13 -11 7 -13 3 -8 -21 5 -28 4 -30 -19 -25 -13
2 -24 8 -24 13 0 5 -8 9 -17 9 -16 -1 -16 -2 1 -15 26 -20 12 -32 -19 -15 -29
16 -46 5 -65 -40 -10 -23 -16 -28 -26 -19 -9 7 -19 7 -33 -1 -28 -15 -27 -22
14 -59 19 -17 35 -40 35 -51 0 -28 -19 -25 -30 5 -5 14 -15 25 -22 25 -9 0 -9
-3 0 -12 19 -19 14 -31 -13 -26 -26 5 -37 -16 -12 -25 8 -3 3 -11 -13 -24 -21
-18 -22 -23 -11 -37 11 -13 10 -18 -4 -33 -20 -19 -3 -32 19 -14 9 8 18 5 33
-12 11 -12 29 -28 39 -35 17 -11 16 -12 -11 -8 -16 3 -24 3 -17 0 6 -3 9 -10
6 -15 -9 -15 16 -39 41 -39 31 0 33 -4 21 -55 -11 -45 -29 -58 -52 -35 -8 8
-15 6 -24 -5 -7 -8 -21 -15 -31 -15 -25 0 -25 -34 1 -70 l20 -28 -20 5 c-11 3
-23 9 -26 14 -9 15 -24 10 -24 -7 0 -10 -6 -13 -19 -9 -10 3 -23 -1 -30 -9
-10 -12 -8 -17 8 -25 11 -6 28 -11 39 -11 24 0 38 -16 48 -54 6 -25 4 -28 -10
-23 -48 20 -51 20 -38 6 19 -21 14 -33 -18 -48 l-31 -13 34 -32 c34 -31 34
-31 13 -48 l-21 -17 23 -1 c27 0 28 -8 5 -26 -17 -13 -17 -14 5 -20 15 -4 22
-14 22 -30 0 -19 5 -24 25 -24 16 0 25 -6 25 -15 0 -28 28 -15 35 15 4 17 13
30 20 30 8 0 11 -7 8 -20 -5 -20 11 -28 22 -10 3 5 15 15 27 21 19 11 20 9 14
-24 -7 -39 6 -56 29 -37 11 9 15 9 15 1 0 -6 7 -11 15 -11 10 0 15 10 15 31 0
24 3 30 16 25 9 -3 18 -6 20 -6 2 0 4 -9 4 -20 0 -27 20 -34 75 -26 42 7 44 8
39 36 -6 27 -3 29 34 39 45 13 57 24 67 63 4 15 16 30 26 33 10 4 19 11 19 16
0 17 26 9 50 -16 12 -13 27 -22 32 -19 5 3 8 2 7 -3 -2 -9 5 -31 27 -81 8 -18
14 -41 14 -51 0 -10 7 -22 16 -25 13 -5 14 -2 8 11 -4 10 -7 30 -7 45 0 15 -3
26 -7 23 -21 -13 -47 149 -31 197 16 48 97 124 127 120 15 -2 36 7 56 23 31
26 37 27 98 13 9 -2 16 6 18 19 2 12 10 27 18 34 13 11 20 8 41 -19 15 -21 33
-32 49 -32 31 0 39 -19 55 -142 10 -80 15 -97 31 -101 16 -5 18 -11 12 -41 -5
-29 -3 -36 10 -36 9 0 26 -6 37 -12 18 -11 23 -10 33 6 6 10 19 28 29 40 19
21 19 16 1 -30 -6 -14 -4 -14 13 -4 17 11 23 10 42 -9 12 -12 21 -32 21 -44
-4 -42 -1 -49 20 -42 15 5 18 3 14 -9 -5 -12 1 -15 30 -14 20 1 36 5 36 10 0
4 -6 7 -12 6 -7 -2 -14 8 -16 22 -2 14 -13 35 -25 48 -18 19 -18 22 -4 22 9 0
17 4 17 10 0 5 -7 7 -15 4 -17 -7 -21 11 -4 21 6 4 8 13 5 21 -4 9 2 14 15 14
15 0 20 5 17 23 -4 26 -25 30 -50 9 -15 -12 -20 -12 -33 -2 -12 10 -19 10 -27
2 -9 -9 -16 5 -29 55 -10 37 -15 71 -12 76 7 12 -16 223 -30 267 -5 19 -9 59
-8 89 2 43 -2 57 -20 77 -27 29 -20 39 18 27 23 -8 28 -16 30 -45 2 -20 12
-62 22 -94 l19 -59 1 45 c0 25 -6 58 -14 74 -17 32 -7 53 20 42 29 -11 43 -68
49 -206 3 -74 8 -146 10 -160 1 -14 4 -46 4 -72 1 -27 7 -48 12 -48 6 0 10 12
10 28 -1 71 8 283 12 288 3 3 9 -20 12 -50 4 -30 22 -96 40 -148 18 -51 36
-118 40 -148 7 -53 19 -80 38 -80 9 0 11 555 1 603 -4 22 -8 25 -20 16 -11
-10 -18 -8 -35 9 -19 18 -20 26 -12 59 6 27 14 38 27 37 9 -1 17 4 17 11 0 25
-12 45 -27 45 -18 0 -113 50 -113 60 0 3 -16 25 -36 48 -37 44 -40 82 -5 82 9
0 22 5 29 12 9 9 12 9 12 0 0 -7 9 -12 20 -12 22 0 26 20 8 38 -9 9 -7 13 5
18 23 9 105 -5 113 -18 11 -17 22 19 23 68 l1 42 -44 -5 c-38 -5 -45 -3 -51
16 -5 17 0 27 20 43 37 29 19 42 -52 40 -75 -3 -93 8 -64 37 11 11 30 21 40
21 29 0 37 20 11 27 -16 4 -18 8 -8 14 11 7 10 11 -2 19 -10 6 -11 10 -2 10
19 0 14 34 -9 59 -15 16 -18 26 -11 33 12 12 4 41 -9 32 -15 -9 -10 23 6 36 8
7 15 28 15 47 0 28 3 33 18 29 19 -6 47 39 35 57 -3 6 -1 7 5 3 8 -5 12 1 12
18 0 14 -4 28 -10 31 -5 3 -10 15 -10 25 0 14 -5 18 -16 13 -8 -3 -25 -1 -37
5 -12 7 -34 16 -49 22 -21 7 -28 16 -28 35 0 18 4 24 13 20 6 -4 2 2 -10 13
-13 11 -23 25 -23 31 0 19 -15 19 -31 -2z m-237 -277 c-9 -16 -21 -25 -25 -21
-14 14 3 51 23 51 18 0 18 -1 2 -30z m-371 -5 c0 -5 -9 -16 -20 -24 -18 -12
-22 -11 -27 4 -4 10 -1 21 7 26 17 11 40 8 40 -6z m349 -55 c0 -16 -38 -32
-46 -19 -7 12 12 29 34 29 6 0 12 -4 12 -10z m-215 -20 c3 -6 -4 -10 -17 -10
-18 0 -20 2 -8 10 19 12 18 12 25 0z m591 -385 c4 -14 3 -29 -1 -33 -8 -8 -35
26 -35 45 0 24 29 14 36 -12z m-445 -195 c6 0 9 -17 7 -37 -4 -47 -27 -54 -49
-15 -19 33 -8 67 18 58 8 -3 19 -6 24 -6z m-171 -20 c0 -5 -8 -10 -17 -10 -15
0 -16 2 -3 10 19 12 20 12 20 0z m-479 -20 c6 0 7 -5 4 -11 -4 -6 2 -13 14
-16 14 -3 21 -13 21 -29 0 -12 5 -26 10 -29 6 -3 10 -10 10 -16 0 -9 -37 21
-37 31 -2 26 -6 31 -25 28 -15 -2 -22 2 -20 11 1 7 -3 20 -10 29 -11 13 -10
15 5 9 10 -4 23 -7 28 -7z m474 -30 c-3 -5 -10 -10 -16 -10 -5 0 -9 5 -9 10 0
6 7 10 16 10 8 0 12 -4 9 -10z m-602 -40 c-7 -28 -13 -25 -13 6 0 14 4 23 9
20 5 -3 7 -15 4 -26z m161 -142 c9 -34 7 -118 -2 -118 -14 0 -29 63 -24 103 5
42 17 48 26 15z m591 -55 c3 -13 2 -23 -3 -23 -17 0 -34 29 -28 47 8 19 21 9
31 -24z m-215 17 c0 -5 -2 -10 -4 -10 -3 0 -8 5 -11 10 -3 6 -1 10 4 10 6 0
11 -4 11 -10z m-166 -58 c-7 -30 -25 -74 -39 -99 -14 -25 -25 -50 -25 -56 0
-5 -8 -16 -17 -24 -13 -10 -15 -16 -5 -19 6 -3 12 -10 12 -16 0 -6 8 -17 18
-25 16 -14 16 -14 -3 -8 -17 6 -37 11 -55 14 -3 1 1 5 9 10 7 5 11 14 7 20 -4
7 -21 0 -48 -19 -45 -33 -63 -38 -54 -15 3 8 9 22 12 30 4 9 1 15 -6 15 -7 0
-18 7 -25 17 -15 20 -35 9 -35 -20 0 -35 -20 -97 -31 -97 -6 0 -8 8 -6 18 25
91 34 115 43 119 7 2 10 13 7 24 -4 15 0 19 21 19 26 0 35 -13 16 -25 -5 -3
-10 -13 -10 -21 0 -9 5 -12 11 -8 7 4 24 7 38 7 17 -1 34 9 49 28 l23 29 -20
26 c-13 16 -21 21 -21 12 0 -8 5 -19 12 -26 17 -17 -3 -15 -26 3 -18 13 -18
15 2 42 19 27 114 83 140 83 6 0 12 5 12 12 0 6 2 9 4 7 2 -2 -2 -28 -10 -57z
m424 -17 c-3 -3 -9 2 -12 12 -6 14 -5 15 5 6 7 -7 10 -15 7 -18z m-688 -65 c0
-5 -4 -10 -10 -10 -5 0 -10 5 -10 10 0 6 5 10 10 10 6 0 10 -4 10 -10z m-52
-46 c25 -15 25 -15 8 0 -20 16 -19 16 1 16 12 0 23 -6 26 -12 4 -12 1 -20 -23
-68 -5 -11 -10 -38 -10 -61 0 -79 -46 -22 -57 71 -4 35 -2 50 6 50 7 0 9 5 6
10 -9 15 12 12 43 -6z m949 0 c8 -22 -15 -43 -27 -24 -5 8 -10 21 -10 28 0 17
30 15 37 -4z m-612 -24 c8 -13 -12 -40 -30 -40 -8 0 -10 9 -7 25 4 25 26 34
37 15z m-55 -40 c0 -5 -7 -10 -16 -10 -8 0 -12 5 -9 10 3 6 10 10 16 10 5 0 9
-4 9 -10z m305 0 c3 -5 -3 -10 -15 -10 -12 0 -18 5 -15 10 3 6 10 10 15 10 5
0 12 -4 15 -10z m15 -70 c0 -5 -5 -10 -11 -10 -5 0 -7 5 -4 10 3 6 8 10 11 10
2 0 4 -4 4 -10z m-440 -10 c0 -5 -8 -13 -17 -19 -14 -8 -15 -12 -6 -22 9 -9
22 -9 57 1 25 7 58 10 73 7 18 -3 37 2 56 15 15 11 31 17 34 14 10 -10 -29
-48 -64 -62 -44 -19 -53 -18 -53 6 0 27 -6 25 -42 -10 -36 -37 -51 -38 -72 -5
-20 30 -36 32 -36 5 0 -26 -16 -26 -23 0 -4 15 5 28 31 50 37 30 62 38 62 20z
m-260 -15 c7 -8 8 -15 2 -15 -5 0 -15 7 -22 15 -7 8 -8 15 -2 15 5 0 15 -7 22
-15z m50 -149 c-8 -8 -13 -7 -20 4 -12 20 -1 33 16 19 11 -9 12 -15 4 -23z
m315 25 c7 -12 -12 -24 -25 -16 -11 7 -4 25 10 25 5 0 11 -4 15 -9z m-390 -90
c3 -5 0 -13 -5 -16 -16 -10 -82 4 -75 16 8 12 72 12 80 0z m295 -44 c0 -19 -1
-20 -20 -2 -11 10 -20 27 -20 38 0 19 1 20 20 2 11 -10 20 -27 20 -38z"/>
<path d="M6320 4690 c0 -5 7 -10 16 -10 8 0 12 5 9 10 -3 6 -10 10 -16 10 -5
0 -9 -4 -9 -10z"/>
<path d="M6437 4693 c-4 -3 -7 -15 -7 -25 0 -26 25 -22 38 7 10 22 9 25 -7 25
-10 0 -21 -3 -24 -7z"/>
<path d="M7585 4690 c-3 -5 1 -10 10 -10 9 0 13 5 10 10 -3 6 -8 10 -10 10 -2
0 -7 -4 -10 -10z"/>
<path d="M6210 4673 c-45 -7 -54 -13 -43 -24 11 -11 133 -23 133 -13 0 10 -44
43 -55 42 -5 0 -21 -3 -35 -5z"/>
<path d="M5640 4653 c0 -31 14 -36 41 -13 13 11 19 19 12 20 -6 0 -15 -5 -18
-11 -5 -6 -12 -4 -21 8 -13 17 -13 17 -14 -4z"/>
<path d="M6940 4663 c0 -5 6 -18 14 -29 17 -22 35 -11 20 13 -12 19 -34 29
-34 16z"/>
<path d="M7124 4645 c-3 -14 -4 -39 -1 -55 4 -17 2 -30 -5 -32 -27 -9 -26 -90
2 -118 22 -22 44 -27 37 -7 -2 6 -9 11 -15 10 -16 -4 -22 38 -6 44 9 3 14 16
13 32 -4 54 0 71 17 64 12 -4 15 0 12 18 -2 13 -9 23 -16 22 -12 -3 -16 9 -13
35 3 23 -19 12 -25 -13z"/>
<path d="M8520 4655 c0 -22 27 -30 46 -14 14 12 14 14 -3 20 -29 12 -43 10
-43 -6z"/>
<path d="M5438 4649 c-10 -6 -10 -13 -2 -26 15 -25 50 -28 58 -6 3 10 8 23 11
29 6 13 -48 15 -67 3z"/>
<path d="M7458 4653 c7 -3 16 -2 19 1 4 3 -2 6 -13 5 -11 0 -14 -3 -6 -6z"/>
<path d="M8089 4625 c-13 -26 -13 -35 -4 -35 7 0 15 -9 18 -20 3 -11 1 -18 -4
-14 -5 3 -9 0 -9 -5 0 -14 17 -14 25 0 4 6 19 7 38 3 l31 -6 -29 24 c-16 14
-34 40 -40 57 l-10 32 -16 -36z"/>
<path d="M7855 4595 c-19 -58 -21 -60 -45 -45 -12 8 -12 11 3 28 9 10 17 29
17 43 l-1 24 -19 -27 c-13 -16 -27 -24 -38 -22 -14 4 -17 -2 -17 -43 0 -37 3
-47 15 -45 8 2 19 7 23 11 5 5 28 4 53 0 90 -17 156 18 92 49 -35 16 -35 30
-2 42 21 8 24 13 14 25 -14 17 -37 10 -43 -13 -4 -14 -6 -13 -12 6 -11 34 -19
27 -40 -33z"/>
<path d="M8691 4624 c0 -11 3 -14 6 -6 3 7 2 16 -1 19 -3 4 -6 -2 -5 -13z"/>
<path d="M5850 4579 c0 -13 -3 -33 -6 -45 -5 -18 -1 -20 45 -20 63 0 69 21 10
31 -43 8 -48 25 -8 36 14 4 17 7 7 8 -9 1 -23 4 -32 7 -12 5 -16 0 -16 -17z"/>
<path d="M5492 4573 c2 -10 10 -18 18 -18 8 0 16 8 18 18 2 12 -3 17 -18 17
-15 0 -20 -5 -18 -17z"/>
<path d="M7632 4575 c-7 -8 -30 -15 -51 -15 -25 0 -41 -5 -45 -15 -7 -18 -65
-55 -86 -55 -8 1 -3 7 12 16 30 16 28 39 -4 50 -23 7 -46 -10 -29 -20 8 -5 6
-18 -4 -43 -8 -19 -15 -39 -15 -43 0 -4 24 -10 52 -13 38 -5 57 -13 70 -29 23
-31 32 -17 29 42 -2 48 -2 50 25 50 15 0 36 -7 46 -17 10 -9 20 -14 21 -12 9
11 47 100 47 109 0 15 -53 11 -68 -5z m-97 -94 c3 -5 1 -12 -5 -16 -5 -3 -10
1 -10 9 0 18 6 21 15 7z"/>
<path d="M5747 4568 c-3 -9 4 -15 20 -16 16 -1 23 3 20 11 -5 17 -33 21 -40 5z"/>
<path d="M8050 4570 c0 -10 26 -20 34 -13 11 12 6 19 -14 20 -11 1 -20 -2 -20
-7z"/>
<path d="M5618 4563 c7 -3 16 -2 19 1 4 3 -2 6 -13 5 -11 0 -14 -3 -6 -6z"/>
<path d="M6428 4563 c7 -3 16 -2 19 1 4 3 -2 6 -13 5 -11 0 -14 -3 -6 -6z"/>
<path d="M6990 4560 c0 -5 5 -10 11 -10 5 0 7 5 4 10 -3 6 -8 10 -11 10 -2 0
-4 -4 -4 -10z"/>
<path d="M5411 4546 c-6 -8 -10 -20 -9 -27 2 -7 -7 -17 -19 -24 -21 -11 -21
-11 -2 -23 10 -7 30 -12 44 -12 29 0 36 -33 9 -48 -12 -7 -6 -12 26 -27 l42
-19 19 25 c10 13 19 32 19 41 0 23 -37 47 -62 40 -19 -5 -19 -4 -4 25 14 28
14 32 -3 47 -22 20 -45 21 -60 2z"/>
<path d="M6230 4551 c0 -5 10 -11 23 -13 12 -2 26 -13 32 -25 10 -23 25 -31
25 -14 0 5 8 7 19 4 12 -3 31 7 52 27 23 22 28 29 14 24 -34 -12 -123 -16
-130 -5 -8 13 -35 14 -35 2z"/>
<path d="M7166 4544 c-4 -10 -2 -22 3 -27 7 -7 13 -5 17 7 4 10 2 22 -3 27 -7
7 -13 5 -17 -7z"/>
<path d="M8200 4547 c0 -8 29 -29 65 -48 36 -18 65 -37 65 -41 0 -19 16 -6 29
23 18 41 0 60 -60 64 -24 2 -56 7 -71 10 -21 6 -28 4 -28 -8z"/>
<path d="M5710 4530 c0 -5 -13 -7 -29 -4 -32 7 -44 -4 -31 -26 8 -13 13 -13
31 -2 22 14 25 12 77 -35 18 -17 32 -16 32 2 0 9 -9 15 -21 15 -14 0 -24 10
-32 30 -11 29 -27 41 -27 20z"/>
<path d="M6034 4525 c27 -21 76 -16 76 6 0 13 -34 11 -48 -3 -9 -9 -12 -9 -12
0 0 7 -8 12 -17 12 -16 -1 -16 -2 1 -15z"/>
<path d="M6180 4526 c0 -16 37 -32 48 -21 7 7 -25 35 -40 35 -4 0 -8 -6 -8
-14z"/>
<path d="M6580 4523 c0 -5 8 -21 19 -36 21 -32 34 -18 20 21 -8 20 -39 32 -39
15z"/>
<path d="M5995 4510 c-9 -14 1 -27 25 -33 30 -8 33 9 5 27 -15 10 -26 12 -30
6z"/>
<path d="M6895 4500 c-9 -14 4 -52 16 -45 12 8 12 42 0 50 -5 3 -12 1 -16 -5z"/>
<path d="M8410 4505 c0 -9 57 -34 64 -28 8 8 -25 32 -46 33 -10 0 -18 -2 -18
-5z"/>
<path d="M8680 4500 c0 -5 7 -10 16 -10 8 0 12 5 9 10 -3 6 -10 10 -16 10 -5
0 -9 -4 -9 -10z"/>
<path d="M5595 4480 c-3 -5 1 -10 10 -10 9 0 13 5 10 10 -3 6 -8 10 -10 10 -2
0 -7 -4 -10 -10z"/>
<path d="M5800 4480 c0 -5 5 -10 11 -10 8 0 9 -4 0 -13 -19 -24 -1 -26 35 -5
19 11 34 22 32 23 -12 9 -78 14 -78 5z"/>
<path d="M6405 4464 c-9 -10 -38 -19 -66 -22 -27 -2 -49 -8 -49 -12 0 -19 31
-26 98 -22 78 5 89 15 53 53 -17 19 -19 19 -36 3z"/>
<path d="M4891 4451 c-17 -32 -14 -54 8 -48 12 3 18 -1 17 -11 0 -9 10 -22 24
-29 31 -16 19 -17 -31 -1 -22 6 -39 17 -39 24 0 17 -27 25 -34 9 -3 -8 -2 -30
1 -50 6 -40 30 -55 84 -55 19 0 29 -5 29 -15 0 -8 4 -15 9 -15 5 0 16 -3 24
-6 12 -4 14 3 10 38 -5 41 -3 46 36 81 34 31 38 39 25 44 -9 3 -25 1 -35 -5
-10 -7 -33 -12 -51 -12 l-33 1 24 20 c28 23 21 34 -26 44 -25 5 -34 2 -42 -14z"/>
<path d="M4717 4446 c-3 -8 0 -17 8 -19 17 -7 25 1 18 19 -7 18 -19 18 -26 0z"/>
<path d="M5160 4445 c0 -16 27 -32 37 -21 7 7 -16 36 -28 36 -5 0 -9 -7 -9
-15z"/>
<path d="M6197 4454 c-14 -14 -7 -35 11 -32 9 2 17 10 17 17 0 16 -18 25 -28
15z"/>
<path d="M7272 4428 c2 -13 9 -23 17 -23 23 0 24 23 1 35 -19 10 -21 9 -18
-12z"/>
<path d="M5853 4412 c-23 -15 -42 -30 -43 -34 0 -4 -4 -18 -10 -33 -10 -25
-10 -25 -35 -9 l-26 17 7 -29 c10 -44 16 -49 31 -29 10 14 13 15 14 4 1 -8 3
-25 5 -39 3 -14 5 -37 6 -52 2 -32 16 -35 58 -13 18 9 27 21 24 29 -3 8 11 47
30 87 20 40 36 79 36 86 0 17 -17 17 -23 1 -3 -10 -8 -10 -21 1 -9 8 -15 20
-12 28 7 17 8 17 -41 -15z m-5 -72 c-1 -16 -6 -30 -10 -30 -12 0 -21 28 -14
45 10 26 26 16 24 -15z"/>
<path d="M7013 4424 c-3 -8 -2 -19 3 -24 8 -7 62 -14 87 -11 14 2 -21 31 -37
31 -8 0 -18 5 -21 10 -9 15 -25 12 -32 -6z"/>
<path d="M5120 4420 c0 -5 5 -10 10 -10 6 0 10 5 10 10 0 6 -4 10 -10 10 -5 0
-10 -4 -10 -10z"/>
<path d="M5203 4415 c-17 -19 -16 -32 3 -39 24 -9 29 -7 16 6 -17 17 -15 28 4
28 8 0 12 5 9 10 -8 13 -18 12 -32 -5z"/>
<path d="M5290 4420 c20 -13 33 -13 25 0 -3 6 -14 10 -23 10 -15 0 -15 -2 -2
-10z"/>
<path d="M6010 4401 c0 -15 8 -39 19 -52 10 -13 21 -38 25 -55 11 -49 57 -87
108 -88 l43 -1 -3 50 c-2 28 -7 54 -12 59 -15 15 -40 -14 -40 -47 l0 -31 -22
22 c-17 17 -20 24 -10 34 20 20 14 33 -23 51 -22 11 -40 29 -49 52 -18 42 -36
46 -36 6z"/>
<path d="M6148 4409 c-25 -14 -22 -31 4 -27 13 2 24 11 26 21 4 19 -5 21 -30
6z"/>
<path d="M5583 4374 l-33 -34 22 -25 c28 -33 36 -32 97 2 2 1 -2 23 -9 48 -15
55 -32 57 -77 9z"/>
<path d="M7414 4384 c3 -8 6 -18 6 -20 0 -3 5 -2 10 1 15 9 12 22 -6 29 -12 5
-15 2 -10 -10z"/>
<path d="M6480 4353 c0 -16 -5 -19 -29 -15 -20 3 -30 -1 -35 -14 -13 -33 11
-37 58 -9 26 15 46 28 44 29 -2 1 -11 8 -20 15 -16 12 -18 11 -18 -6z"/>
<path d="M7028 4363 c7 -3 16 -2 19 1 4 3 -2 6 -13 5 -11 0 -14 -3 -6 -6z"/>
<path d="M7381 4337 c7 -12 16 -25 22 -28 6 -4 1 -21 -13 -44 -12 -20 -20 -38
-17 -41 3 -3 27 -1 54 6 26 6 56 11 66 11 15 0 17 6 11 37 -4 20 -7 44 -6 54
1 20 -37 31 -55 17 -9 -8 -22 -8 -43 -1 -29 11 -30 10 -19 -11z"/>
<path d="M5068 4329 c-24 -13 -23 -39 1 -39 10 0 24 -7 31 -15 8 -10 17 -12
24 -6 6 5 26 11 45 13 45 4 49 19 10 42 -29 17 -31 17 -44 -1 -13 -17 -14 -17
-15 0 0 19 -25 22 -52 6z"/>
<path d="M8567 4334 c-4 -4 -7 -20 -7 -36 0 -27 2 -28 45 -28 25 0 45 4 45 9
0 5 -8 8 -17 7 -10 0 -19 9 -23 24 -6 25 -29 37 -43 24z"/>
<path d="M6275 4320 c-34 -6 -46 -40 -24 -66 11 -14 13 -14 21 0 19 34 73 13
110 -41 19 -28 19 -28 13 -3 -4 14 -13 32 -20 40 -8 8 -18 27 -24 41 -11 29
-32 38 -76 29z"/>
<path d="M6954 4315 c3 -10 -1 -15 -12 -16 -11 0 -12 -2 -4 -6 14 -5 42 14 42
28 0 5 -7 9 -16 9 -10 0 -14 -6 -10 -15z"/>
<path d="M7030 4305 c-7 -8 -9 -23 -5 -32 6 -16 8 -16 26 6 18 22 18 41 0 41
-5 0 -14 -7 -21 -15z"/>
<path d="M5260 4301 c0 -5 7 -12 16 -15 22 -9 24 -8 18 9 -7 16 -34 21 -34 6z"/>
<path d="M6849 4293 c-16 -18 -21 -100 -8 -109 5 -3 9 9 9 26 0 17 3 29 8 27
4 -3 21 9 37 25 27 27 28 29 8 23 -17 -5 -23 -2 -23 9 0 21 -14 20 -31 -1z
m21 -33 c0 -5 -4 -10 -10 -10 -5 0 -10 5 -10 10 0 6 5 10 10 10 6 0 10 -4 10
-10z"/>
<path d="M4675 4289 c-11 -17 1 -21 15 -4 8 9 8 15 2 15 -6 0 -14 -5 -17 -11z"/>
<path d="M5951 4274 c-12 -15 -21 -32 -21 -39 0 -17 28 -27 51 -20 13 4 29 -3
50 -24 35 -35 37 -36 63 -16 18 13 17 15 -10 39 -16 14 -33 26 -39 26 -15 1
-55 37 -55 49 0 19 -18 12 -39 -15z"/>
<path d="M7756 4279 c-32 -25 -33 -39 -3 -39 33 0 62 23 54 44 -8 21 -19 20
-51 -5z"/>
<path d="M5677 4274 c-8 -8 3 -34 14 -34 5 0 9 9 9 20 0 19 -11 26 -23 14z"/>
<path d="M6559 4265 c-1 -5 -1 -14 0 -18 1 -7 -36 -43 -77 -73 -16 -12 -7 -15
46 -14 73 1 72 0 72 35 0 30 -37 94 -41 70z m-19 -85 c0 -5 -7 -10 -16 -10 -8
0 -12 5 -9 10 3 6 10 10 16 10 5 0 9 -4 9 -10z"/>
<path d="M7580 4260 c0 -5 5 -10 10 -10 6 0 10 5 10 10 0 6 -4 10 -10 10 -5 0
-10 -4 -10 -10z"/>
<path d="M5024 4235 c3 -9 6 -19 6 -21 0 -2 7 -4 16 -4 22 0 13 34 -10 38 -14
3 -17 0 -12 -13z"/>
<path d="M5380 4243 c0 -4 5 -15 10 -23 8 -13 10 -13 10 2 0 9 -4 20 -10 23
-5 3 -10 3 -10 -2z"/>
<path d="M5196 4218 c-22 -19 -25 -28 -18 -52 13 -47 34 -54 87 -28 55 27 70
27 87 4 31 -44 71 -38 42 6 -33 51 -77 92 -88 83 -6 -5 -20 -5 -31 0 -34 13
-53 10 -79 -13z"/>
<path d="M4540 4223 c0 -5 5 -14 12 -21 12 -12 9 -14 -27 -16 -31 -2 -43 -38
-31 -90 10 -42 11 -44 28 -29 11 10 16 24 12 37 -4 18 2 26 35 42 33 15 41 24
41 47 0 15 -6 27 -12 27 -7 0 -23 3 -35 6 -13 4 -23 2 -23 -3z"/>
<path d="M4792 4223 c9 -5 26 -20 38 -35 12 -16 25 -28 30 -28 6 0 22 52 17
57 -1 0 -24 4 -52 7 -27 3 -42 3 -33 -1z"/>
<path d="M5626 4223 c-3 -4 -6 -15 -6 -25 0 -19 25 -25 35 -8 7 12 -20 42 -29
33z"/>
<path d="M7328 4223 c6 -2 18 -2 25 0 6 3 1 5 -13 5 -14 0 -19 -2 -12 -5z"/>
<path d="M4970 4200 l-35 -6 34 -7 c35 -7 46 -5 40 10 -2 4 -20 6 -39 3z"/>
<path d="M5760 4196 c0 -9 5 -16 10 -16 6 0 10 4 10 9 0 6 -4 13 -10 16 -5 3
-10 -1 -10 -9z"/>
<path d="M5590 4180 c0 -5 5 -10 10 -10 6 0 10 5 10 10 0 6 -4 10 -10 10 -5 0
-10 -4 -10 -10z"/>
<path d="M4385 4171 c-6 -11 9 -23 19 -14 9 9 7 23 -3 23 -6 0 -12 -4 -16 -9z"/>
<path d="M4690 4151 c-23 -19 -40 -26 -50 -21 -8 4 -28 2 -43 -5 -28 -11 -28
-11 -7 -30 11 -10 20 -31 20 -47 0 -23 4 -28 25 -28 18 0 23 4 19 15 -4 8 -2
15 4 15 6 0 12 -5 14 -11 3 -9 10 -8 25 1 25 16 53 7 60 -20 3 -11 11 -20 18
-20 8 0 20 -2 28 -6 20 -7 31 68 16 113 -13 41 -57 64 -71 38 -11 -18 -38 -20
-38 -2 0 7 5 18 12 25 23 23 2 12 -32 -17z"/>
<path d="M6320 4166 c0 -15 18 -31 26 -23 7 7 -7 37 -17 37 -5 0 -9 -6 -9 -14z"/>
<path d="M6816 4138 c-7 -34 -3 -44 13 -33 13 7 15 65 2 65 -5 0 -11 -14 -15
-32z"/>
<path d="M6420 4141 c0 -10 9 -26 20 -36 21 -19 18 -37 -5 -28 -12 4 -15 -3
-15 -31 0 -31 -4 -37 -27 -42 -37 -9 -53 -23 -53 -45 0 -12 7 -19 18 -19 10 0
27 -7 38 -15 28 -21 29 -19 26 30 -3 35 -1 45 11 45 8 0 20 -14 26 -32 16 -44
25 -28 26 47 1 52 6 69 23 88 12 13 22 26 22 29 0 5 -25 12 -92 25 -12 2 -18
-3 -18 -16z"/>
<path d="M5100 4133 c0 -9 -22 -38 -50 -65 -52 -51 -57 -58 -39 -58 6 0 23 -9
39 -20 38 -27 80 -12 103 36 21 43 21 48 2 40 -18 -7 -48 22 -41 40 3 8 9 21
12 29 4 10 0 15 -10 15 -9 0 -16 -7 -16 -17z"/>
<path d="M5974 4139 c-11 -18 13 -34 31 -19 8 7 15 16 15 21 0 13 -38 11 -46
-2z"/>
<path d="M4889 4135 c-1 -5 -3 -28 -4 -50 0 -22 -5 -57 -9 -77 -7 -30 -5 -38
6 -38 21 0 90 114 82 134 -8 20 -34 21 -34 2 0 -30 -20 -26 -29 6 -5 18 -10
29 -12 23z"/>
<path d="M4457 4124 c-8 -8 1 -24 14 -24 5 0 9 7 9 15 0 15 -12 20 -23 9z"/>
<path d="M4371 4074 c-19 -32 -20 -40 -9 -70 17 -49 46 -44 53 9 1 12 6 39 10
60 6 33 5 37 -13 37 -12 0 -28 -14 -41 -36z"/>
<path d="M5233 4104 c-16 -7 -5 -34 13 -34 8 0 14 9 14 20 0 20 -5 23 -27 14z"/>
<path d="M5325 4088 c-15 -22 -15 -23 9 -32 36 -13 42 -36 10 -36 -36 0 -28
-34 9 -38 25 -3 40 -22 17 -22 -5 0 -10 -5 -10 -12 0 -6 17 5 37 26 l37 37
-19 32 c-40 71 -63 82 -90 45z"/>
<path d="M6110 4101 c0 -17 29 -33 57 -31 58 4 62 2 50 -23 -19 -41 -63 -54
-140 -41 -23 4 -43 2 -52 -6 -24 -20 -7 -31 36 -24 33 6 39 4 39 -11 0 -13 6
-15 33 -10 58 12 64 15 95 59 37 51 38 56 16 56 -9 0 -18 9 -21 20 -5 17 -14
20 -59 20 -30 0 -54 -4 -54 -9z"/>
<path d="M5720 4090 c0 -5 5 -10 10 -10 6 0 10 5 10 10 0 6 -4 10 -10 10 -5 0
-10 -4 -10 -10z"/>
<path d="M6270 4090 c0 -5 9 -10 21 -10 11 0 17 5 14 10 -3 6 -13 10 -21 10
-8 0 -14 -4 -14 -10z"/>
<path d="M7364 4088 c-4 -6 -3 -13 2 -17 5 -3 10 -18 11 -33 0 -20 -5 -29 -21
-35 -11 -4 -25 -6 -29 -5 -14 4 -77 -21 -77 -30 0 -14 -27 -9 -40 7 -15 18
-53 20 -81 4 -19 -9 -19 -9 -10 10 6 11 16 23 21 26 19 12 10 23 -32 39 l-41
17 -23 -28 c-13 -15 -26 -36 -29 -45 -4 -10 -11 -18 -16 -18 -5 0 -9 -5 -9
-11 0 -8 14 -10 40 -6 44 6 58 -4 35 -23 -9 -7 -15 -29 -15 -51 0 -28 -4 -39
-15 -39 -8 0 -15 -4 -15 -10 0 -5 -7 -10 -16 -10 -25 0 23 -60 61 -76 17 -7
37 -20 45 -28 25 -31 20 -36 207 202 58 74 79 90 96 73 6 -6 15 -11 20 -11 13
0 -3 44 -20 53 -8 5 -11 16 -8 27 6 20 -30 36 -41 18z m-146 -143 c18 -18 -72
-32 -93 -15 -25 21 -6 33 43 26 25 -3 48 -8 50 -11z m-110 -27 c13 -13 16 -58
4 -58 -15 0 -32 24 -32 47 0 25 10 29 28 11z m68 -65 c-10 -10 -19 5 -10 18 6
11 8 11 12 0 2 -7 1 -15 -2 -18z"/>
<path d="M4446 4071 c-13 -14 -14 -21 -6 -26 13 -8 30 11 30 33 0 16 -4 15
-24 -7z"/>
<path d="M6020 4080 c0 -5 9 -10 21 -10 11 0 17 5 14 10 -3 6 -13 10 -21 10
-8 0 -14 -4 -14 -10z"/>
<path d="M5717 4070 c-39 -7 -87 -29 -87 -39 0 -3 10 -6 23 -6 12 -1 31 -4 42
-7 14 -5 31 3 59 28 42 36 38 39 -37 24z"/>
<path d="M5470 4054 c0 -20 15 -25 35 -10 17 12 16 13 -8 18 -18 4 -27 1 -27
-8z"/>
<path d="M5920 4056 c0 -9 7 -16 16 -16 9 0 14 5 12 12 -6 18 -28 21 -28 4z"/>
<path d="M7814 4062 c3 -6 26 -21 50 -35 32 -18 47 -22 55 -14 20 20 11 35
-26 42 -21 3 -49 9 -62 12 -16 4 -22 2 -17 -5z"/>
<path d="M6810 4042 c0 -24 -28 -30 -47 -11 -7 7 -13 7 -17 1 -8 -14 24 -39
61 -47 33 -7 33 -6 27 27 -8 40 -24 61 -24 30z"/>
<path d="M5858 3998 c-37 -39 -46 -95 -20 -126 18 -21 21 -21 48 -7 16 8 35
15 41 15 17 0 46 46 49 76 3 31 -13 31 -56 -1 -19 -14 -38 -25 -43 -25 -16 0
1 74 20 87 13 10 13 13 2 12 -8 -1 -26 -15 -41 -31z"/>
<path d="M5590 4012 c0 -5 -15 -14 -32 -20 -27 -8 -29 -10 -10 -11 12 -1 25
-7 28 -14 9 -23 -15 -67 -41 -77 -14 -5 -25 -14 -25 -20 0 -15 16 -12 30 5 16
19 67 19 102 1 39 -21 88 -30 88 -17 0 6 10 11 23 11 21 1 21 1 4 15 -24 18
-18 49 11 53 12 2 22 10 22 18 0 8 11 26 25 39 13 14 22 25 19 25 -14 0 -74
-30 -74 -37 0 -5 -12 -10 -27 -11 -18 -1 -39 -15 -60 -40 -17 -20 -35 -33 -39
-29 -5 4 -3 12 4 16 19 12 28 81 11 83 -8 0 -18 2 -24 2 -5 1 -16 5 -22 9 -7
5 -13 4 -13 -1z"/>
<path d="M4493 3984 c-4 -10 -22 -34 -40 -52 -19 -19 -32 -39 -30 -45 2 -7 22
-13 44 -15 40 -3 41 -3 57 43 15 44 14 48 -4 67 -19 20 -20 20 -27 2z"/>
<path d="M6203 3945 c-21 -19 -43 -35 -50 -35 -6 0 -24 -5 -40 -11 l-28 -11
23 -18 c12 -10 22 -23 22 -29 0 -19 47 -23 79 -6 28 14 32 21 30 53 -1 20 2
49 6 65 9 35 4 34 -42 -8z"/>
<path d="M7725 3970 c-3 -5 -1 -10 4 -10 6 0 11 5 11 10 0 6 -2 10 -4 10 -3 0
-8 -4 -11 -10z"/>
<path d="M5195 3961 c-3 -5 0 -13 5 -16 16 -10 62 4 55 15 -8 13 -52 13 -60 1z"/>
<path d="M5436 3953 c-8 -19 14 -37 28 -23 10 10 1 40 -13 40 -5 0 -12 -8 -15
-17z"/>
<path d="M4852 3924 c-34 -35 -77 -45 -100 -22 -8 8 -15 8 -26 -2 -22 -17 -12
-28 20 -22 15 3 24 1 21 -4 -3 -5 11 -10 31 -11 21 -1 46 -4 57 -5 13 -2 20 4
23 17 2 11 8 30 14 43 20 40 -4 44 -40 6z"/>
<path d="M5490 3948 c0 -9 -58 -63 -68 -63 -4 -1 -23 -11 -42 -23 -19 -12 -43
-22 -52 -22 -15 0 -16 -3 -2 -35 7 -19 14 -46 14 -60 0 -27 5 -30 62 -38 53
-8 77 15 85 79 6 52 5 52 -21 47 -14 -3 -29 -9 -32 -14 -10 -16 -24 -9 -24 11
0 12 14 29 35 42 19 13 40 33 46 46 7 12 16 22 21 22 4 0 8 4 8 8 0 5 -7 9
-15 9 -8 0 -15 -4 -15 -9z"/>
<path d="M7915 3930 c-4 -6 5 -10 20 -10 15 0 24 4 20 10 -3 6 -12 10 -20 10
-8 0 -17 -4 -20 -10z"/>
<path d="M6740 3917 c0 -21 33 -30 76 -23 45 9 53 25 12 24 -18 0 -45 3 -60 7
-22 6 -28 4 -28 -8z"/>
<path d="M6627 3913 c-13 -12 -7 -23 13 -23 13 0 18 5 14 15 -7 16 -17 19 -27
8z"/>
<path d="M6490 3900 c0 -5 5 -10 10 -10 6 0 10 5 10 10 0 6 -4 10 -10 10 -5 0
-10 -4 -10 -10z"/>
<path d="M6670 3900 c0 -5 5 -10 10 -10 6 0 10 5 10 10 0 6 -4 10 -10 10 -5 0
-10 -4 -10 -10z"/>
<path d="M4570 3879 c0 -18 2 -19 15 -9 8 7 15 16 15 21 0 5 -7 9 -15 9 -9 0
-15 -9 -15 -21z"/>
<path d="M7997 3885 c-15 -11 -16 -13 -2 -19 9 -3 18 1 22 10 8 21 1 25 -20 9z"/>
<path d="M4947 3872 c-23 -25 -26 -65 -6 -70 9 -1 23 3 31 11 8 8 23 17 35 21
21 7 21 7 -3 31 -30 30 -36 31 -57 7z"/>
<path d="M5245 3880 c-3 -6 1 -13 10 -16 19 -8 30 0 20 15 -8 14 -22 14 -30 1z"/>
<path d="M6302 3876 c-18 -5 -31 -15 -29 -21 5 -12 79 -8 127 8 l35 11 -30 7
c-41 9 -64 8 -103 -5z"/>
<path d="M5149 3818 c-2 -39 2 -50 33 -96 16 -24 27 -50 24 -58 -7 -17 7 -18
37 -1 60 33 71 62 41 105 -13 19 -24 23 -57 20 -39 -3 -42 -1 -42 22 0 33 -34
41 -36 8z m116 -108 c9 -14 -8 -12 -40 4 -17 9 -22 16 -13 19 14 5 43 -8 53
-23z"/>
<path d="M4600 3815 c0 -8 5 -15 10 -15 6 0 10 7 10 15 0 8 -4 15 -10 15 -5 0
-10 -7 -10 -15z"/>
<path d="M4375 3810 c-20 -9 -20 -9 1 -9 11 -1 25 -6 30 -11 13 -13 46 -2 41
14 -5 14 -46 18 -72 6z"/>
<path d="M8690 3805 c0 -8 5 -15 10 -15 6 0 10 7 10 15 0 8 -4 15 -10 15 -5 0
-10 -7 -10 -15z"/>
<path d="M5647 3790 c-6 -22 11 -25 48 -10 19 7 18 9 -8 19 -36 14 -34 14 -40
-9z"/>
<path d="M4553 3785 c4 -9 7 -19 7 -21 0 -2 7 -4 15 -4 22 0 18 18 -7 31 -18
10 -20 9 -15 -6z"/>
<path d="M5031 3768 c1 -18 -1 -48 -5 -65 -17 -72 26 -102 89 -63 40 25 41 29
18 73 l-18 32 -3 -30 c-5 -44 -17 -50 -41 -19 -26 34 -27 54 -1 61 11 3 20 8
20 12 0 14 -24 31 -43 31 -15 0 -18 -7 -16 -32z"/>
<path d="M5552 3789 c2 -6 8 -10 13 -10 5 0 11 4 13 10 2 6 -4 11 -13 11 -9 0
-15 -5 -13 -11z"/>
<path d="M4440 3766 c0 -8 -7 -16 -15 -20 -22 -8 -18 -21 10 -34 24 -11 36 0
15 13 -17 11 -11 21 23 38 l32 16 -32 0 c-22 1 -33 -4 -33 -13z"/>
<path d="M5510 3755 c-7 -9 -11 -18 -8 -20 9 -10 38 7 38 21 0 18 -14 18 -30
-1z"/>
<path d="M4850 3750 c-12 -7 -12 -12 0 -34 7 -14 17 -26 21 -26 3 0 19 16 33
35 26 34 24 48 -3 23 -11 -10 -14 -10 -18 0 -6 14 -13 15 -33 2z"/>
<path d="M4250 3729 c0 -5 9 -9 20 -9 11 0 20 2 20 4 0 2 -9 6 -20 9 -11 3
-20 1 -20 -4z"/>
<path d="M4695 3730 c-3 -5 1 -10 9 -10 9 0 16 5 16 10 0 6 -4 10 -9 10 -6 0
-13 -4 -16 -10z"/>
<path d="M4697 3689 c-21 -17 -37 -27 -36 -23 8 46 -12 43 -45 -6 -14 -22 -32
-40 -39 -40 -6 0 -23 -24 -37 -53 -20 -41 -30 -51 -47 -49 -30 4 -36 -12 -19
-53 19 -43 36 -44 88 -2 27 21 42 28 45 20 3 -7 15 -13 28 -13 26 0 50 -24 42
-44 -7 -18 -58 -18 -79 1 -11 10 -18 11 -23 3 -3 -5 -12 -7 -18 -3 -7 4 -6 -1
2 -10 7 -9 25 -23 40 -30 25 -12 26 -16 27 -95 1 -45 3 -85 7 -88 3 -3 20 15
39 40 32 43 35 45 85 46 62 0 103 14 103 35 0 11 -7 13 -30 9 -36 -8 -39 7
-10 51 10 16 16 34 11 40 -4 5 -13 29 -20 53 -12 43 -25 53 -35 27 -3 -8 -10
-15 -16 -15 -15 0 -12 26 5 40 20 16 19 50 0 50 -9 0 -18 7 -21 15 -10 25 -27
17 -20 -9 8 -34 -26 -53 -93 -52 -72 2 -75 18 -16 70 35 32 63 46 116 60 38
10 69 21 69 26 0 6 -52 30 -64 30 -1 0 -18 -14 -39 -31z m39 -325 c7 -39 -5
-60 -30 -51 -18 7 -31 50 -22 72 3 8 14 15 25 15 15 0 22 -9 27 -36z"/>
<path d="M5353 3659 c-29 -10 -29 -25 -2 -39 15 -9 24 -8 36 2 13 10 17 10 20
1 7 -19 28 -16 49 9 19 21 19 21 -5 15 -13 -3 -36 0 -50 7 -17 9 -34 11 -48 5z"/>
<path d="M4980 3623 c0 -39 -11 -64 -26 -65 -32 -1 -87 -42 -98 -73 -6 -16 -9
-17 -17 -5 -8 11 -9 9 -4 -10 4 -14 9 -35 12 -47 8 -32 25 -28 43 10 11 23 23
33 43 35 22 3 27 8 27 30 0 33 6 42 48 71 34 24 41 41 17 41 -9 0 -20 11 -25
25 -13 35 -20 31 -20 -12z"/>
<path d="M4310 3632 c0 -12 -4 -24 -10 -27 -5 -3 -10 -11 -10 -17 0 -7 6 -6
15 2 13 11 15 7 15 -27 0 -32 7 -46 40 -78 22 -21 42 -37 44 -34 10 10 -7 49
-21 49 -24 0 -7 51 25 77 15 13 40 23 55 23 30 0 87 28 87 42 0 12 -38 9 -46
-3 -7 -11 -91 -7 -164 8 -26 5 -30 2 -30 -15z"/>
<path d="M5240 3606 c0 -2 7 -9 15 -16 9 -7 15 -8 15 -2 0 5 -7 12 -15 16 -8
3 -15 4 -15 2z"/>
<path d="M5340 3599 c0 -5 5 -7 10 -4 6 3 10 8 10 11 0 2 -4 4 -10 4 -5 0 -10
-5 -10 -11z"/>
<path d="M7607 3594 c-4 -4 -4 -10 -1 -15 6 -10 34 0 34 12 0 10 -24 12 -33 3z"/>
<path d="M5200 3561 c0 -5 7 -12 16 -15 14 -5 15 -4 4 9 -14 17 -20 19 -20 6z"/>
<path d="M5096 3549 c-42 -7 -89 -38 -94 -61 -2 -9 8 -28 21 -44 18 -21 28
-25 43 -19 10 4 25 7 33 6 7 -1 10 2 7 7 -3 5 4 12 15 15 11 3 23 15 26 26 3
12 10 21 15 21 6 0 8 -10 5 -21 -3 -12 0 -28 9 -36 22 -23 16 -34 -11 -21 -18
8 -29 8 -36 1 -8 -8 -1 -16 24 -28 20 -9 38 -24 42 -33 5 -13 9 -11 25 13 28
42 16 81 -40 135 -43 41 -50 44 -84 39z m-1 -69 c3 -5 -1 -10 -9 -10 -9 0 -16
5 -16 10 0 6 4 10 9 10 6 0 13 -4 16 -10z"/>
<path d="M5315 3502 c-6 -4 -17 -16 -25 -26 -14 -18 -14 -19 7 -8 23 12 38 30
31 37 -2 2 -8 1 -13 -3z"/>
<path d="M7115 3440 c3 -5 8 -10 11 -10 2 0 4 5 4 10 0 6 -5 10 -11 10 -5 0
-7 -4 -4 -10z"/>
<path d="M4560 3362 c0 -5 9 -17 20 -27 18 -16 20 -16 20 -2 0 9 -9 21 -20 27
-11 6 -20 7 -20 2z"/>
<path d="M4383 3294 c-13 -29 -3 -31 21 -5 13 14 14 20 4 24 -8 2 -19 -6 -25
-19z"/>
<path d="M8455 3234 c10 -79 26 -144 38 -151 7 -4 8 5 2 28 -4 19 -11 63 -14
98 -4 40 -11 66 -19 69 -11 3 -12 -6 -7 -44z"/>
<path d="M4214 3178 c9 -44 22 -56 41 -37 14 14 14 18 -5 42 -29 37 -44 35
-36 -5z"/>
<path d="M4362 3187 c-15 -17 -6 -27 25 -27 18 0 24 5 21 17 -4 22 -31 28 -46
10z"/>
<path d="M4606 3191 c-4 -5 -2 -12 3 -15 5 -4 12 -2 15 3 4 5 2 12 -3 15 -5 4
-12 2 -15 -3z"/>
<path d="M4312 3075 c-7 -14 -12 -30 -12 -35 0 -18 56 -10 78 10 34 32 28 50
-16 50 -32 0 -41 -5 -50 -25z"/>
<path d="M8590 2941 c0 -6 4 -13 10 -16 6 -3 7 1 4 9 -7 18 -14 21 -14 7z"/>
<path d="M8275 2850 c3 -5 11 -10 16 -10 6 0 7 5 4 10 -3 6 -11 10 -16 10 -6
0 -7 -4 -4 -10z"/>
<path d="M5037 2809 c-35 -9 -57 -27 -57 -45 0 -11 5 -11 28 -2 29 13 69 45
61 51 -2 2 -17 1 -32 -4z"/>
<path d="M8297 2763 c-4 -6 0 -13 8 -17 24 -9 17 -34 -13 -50 -21 -11 -31 -27
-40 -63 -10 -35 -22 -55 -47 -73 -35 -26 -46 -50 -21 -50 15 0 30 -27 17 -32
-5 -2 -12 -13 -15 -25 -7 -21 -4 -23 26 -23 19 0 39 -5 46 -12 9 -9 13 -7 18
5 9 24 -3 48 -25 54 -12 3 -17 11 -14 24 6 21 35 33 62 24 21 -6 38 10 21 20
-16 10 -12 47 14 111 37 92 39 104 23 104 -9 0 -17 -6 -20 -12 -3 -9 -9 -7
-19 6 -9 12 -17 15 -21 9z"/>
<path d="M8667 2693 c-4 -3 -7 -12 -7 -20 0 -11 5 -11 20 -3 11 6 20 15 20 20
0 11 -23 13 -33 3z"/>
<path d="M7937 2517 c-10 -24 -15 -51 -11 -60 4 -11 1 -17 -9 -17 -9 0 -20
-15 -27 -34 -6 -19 -18 -37 -27 -40 -11 -5 -13 -10 -4 -20 6 -7 8 -15 5 -18
-2 -3 27 -6 67 -6 57 -1 68 1 56 11 -8 7 -18 31 -22 55 -5 34 -4 42 9 42 10 0
18 -13 22 -37 4 -21 13 -47 20 -57 13 -19 14 -19 23 5 24 56 55 75 66 39 9
-27 49 -26 77 2 20 20 20 22 4 34 -10 7 -31 11 -47 9 -35 -5 -77 9 -99 33 -18
19 -34 53 -31 65 1 5 -3 5 -9 2 -7 -4 -14 2 -17 14 -9 33 -27 25 -46 -22z m1
-99 c14 -14 16 -78 2 -78 -5 0 -10 5 -10 11 0 8 -4 8 -15 -1 -21 -17 -36 -4
-25 23 4 12 11 30 14 40 6 20 17 22 34 5z"/>
<path d="M7756 2443 c-4 -4 -31 -8 -59 -8 l-52 0 -3 -54 c-2 -33 1 -57 8 -61
14 -9 91 -6 107 3 7 4 25 5 42 2 29 -5 30 -5 24 32 -10 62 -9 68 10 65 9 -2
17 2 17 8 0 6 -12 10 -27 9 -16 -1 -35 1 -44 5 -8 4 -18 3 -23 -1z m-53 -28
c18 24 25 9 19 -42 -4 -43 -22 -51 -22 -10 l0 22 -18 -23 c-21 -28 -32 -20
-32 23 0 40 11 51 27 29 12 -17 14 -17 26 1z m91 -7 c3 -13 6 -36 6 -53 -1
-29 -1 -29 -15 -11 -15 20 -15 20 -31 0 -14 -18 -15 -17 -10 21 3 22 6 46 6
53 0 22 37 13 44 -10z"/>
<path d="M8380 2169 c0 -5 5 -7 10 -4 6 3 10 8 10 11 0 2 -4 4 -10 4 -5 0 -10
-5 -10 -11z"/>
<path d="M7730 2148 c-51 -29 -79 -58 -101 -102 -21 -44 -27 -98 -8 -79 6 6
12 17 13 24 8 38 31 77 64 107 45 42 72 57 72 41 0 -8 4 -8 13 -1 14 12 31 4
40 -18 4 -11 7 -10 12 8 8 25 15 26 66 12 32 -9 78 -52 134 -126 21 -27 18 -9
-5 35 -24 48 -83 98 -130 111 -57 16 -131 11 -170 -12z"/>
<path d="M8397 2136 c-9 -13 -26 -27 -37 -31 -21 -7 -28 -35 -9 -35 5 0 7 -5
3 -12 -5 -8 -2 -9 10 -5 10 4 23 7 29 7 7 0 6 4 -3 10 -10 6 -11 10 -2 10 6 0
12 10 12 23 0 13 5 28 12 35 6 6 9 14 6 17 -3 3 -13 -5 -21 -19z"/>
<path d="M8090 2135 c0 -5 5 -17 10 -25 5 -8 10 -10 10 -5 0 6 -5 17 -10 25
-5 8 -10 11 -10 5z"/>
<path d="M7757 2099 c-15 -17 -16 -23 -5 -36 12 -15 1 -30 -36 -48 -8 -3 -8
-7 1 -11 7 -3 10 -11 7 -19 -3 -7 4 -18 15 -24 29 -16 32 -14 26 20 -6 35 2
69 16 69 5 0 9 -12 9 -26 0 -33 17 -64 35 -64 21 0 19 16 -5 40 -21 21 -26 45
-11 55 5 3 13 1 16 -5 4 -6 15 -8 25 -5 16 5 19 0 22 -36 2 -23 9 -44 16 -47
7 -2 10 2 6 12 -7 18 20 23 31 6 3 -5 12 -7 20 -4 10 4 2 18 -30 51 -26 26
-49 42 -56 38 -6 -4 -15 -2 -19 5 -6 9 -13 9 -28 1 -25 -13 -36 -1 -27 29 8
26 -6 26 -28 -1z"/>
<path d="M7905 2090 c-3 -5 -2 -10 4 -10 5 0 13 5 16 10 3 6 2 10 -4 10 -5 0
-13 -4 -16 -10z"/>
<path d="M8647 2065 c-4 -8 -2 -17 3 -20 6 -4 10 3 10 14 0 25 -6 27 -13 6z"/>
<path d="M7690 2055 c0 -9 5 -15 11 -13 6 2 11 8 11 13 0 5 -5 11 -11 13 -6 2
-11 -4 -11 -13z"/>
<path d="M7675 2020 c3 -5 8 -10 11 -10 2 0 4 5 4 10 0 6 -5 10 -11 10 -5 0
-7 -4 -4 -10z"/>
<path d="M8289 2010 l-24 -20 28 11 c15 7 27 16 27 21 0 12 -5 10 -31 -12z"/>
<path d="M7980 1999 c0 -5 5 -7 10 -4 6 3 10 8 10 11 0 2 -4 4 -10 4 -5 0 -10
-5 -10 -11z"/>
<path d="M7707 1948 c-6 -17 12 -68 24 -68 4 0 9 9 12 20 3 11 2 20 -2 20 -5
0 -12 10 -18 22 -8 18 -10 19 -16 6z"/>
<path d="M7931 1939 c-14 -12 -31 -17 -40 -13 -23 9 -101 12 -101 3 0 -4 13
-14 28 -22 24 -11 30 -11 41 0 7 8 18 12 24 10 9 -3 15 -10 34 -46 1 -2 9 4
18 13 9 9 13 21 10 26 -4 6 -1 18 6 26 19 23 7 24 -20 3z"/>
<path d="M8041 1934 c0 -11 3 -14 6 -6 3 7 2 16 -1 19 -3 4 -6 -2 -5 -13z"/>
<path d="M8226 1938 c-10 -6 -33 -12 -50 -13 -27 -2 -32 -7 -40 -39 -5 -20 -7
-38 -4 -41 8 -8 113 51 113 63 0 6 3 14 8 18 21 21 3 30 -27 12z"/>
<path d="M7620 1916 c0 -13 6 -28 13 -34 10 -9 12 -4 9 23 -5 39 -22 48 -22
11z"/>
<path d="M7975 1930 c3 -5 8 -10 11 -10 2 0 4 5 4 10 0 6 -5 10 -11 10 -5 0
-7 -4 -4 -10z"/>
<path d="M8008 1857 c-20 -23 -47 -55 -60 -71 -22 -27 -28 -28 -105 -29 -74 0
-84 2 -119 29 -79 60 -109 65 -59 11 44 -46 96 -67 172 -67 61 0 73 3 120 36
35 24 59 51 74 80 12 25 19 47 17 49 -2 2 -20 -15 -40 -38z"/>
<path d="M2425 1881 c-3 -3 -24 -4 -46 -3 l-40 3 3 -118 3 -117 25 0 c16 0 26
6 28 17 2 12 -3 17 -17 17 -30 0 -31 66 -1 75 11 3 20 12 20 20 0 7 -9 15 -20
18 -30 8 -26 45 6 57 45 17 54 0 54 -106 0 -56 4 -94 10 -94 6 0 10 40 10 100
0 65 4 100 11 100 6 0 9 8 7 17 -3 15 -42 26 -53 14z"/>
<path d="M2658 1882 c-22 -3 -28 -9 -28 -26 0 -13 -3 -38 -6 -56 -9 -42 -24
-19 -24 38 0 23 -4 42 -10 42 -6 0 -10 -28 -10 -62 0 -45 -3 -59 -10 -48 -5 8
-10 31 -10 50 0 37 -14 69 -25 58 -4 -4 -2 -38 4 -77 6 -38 11 -88 11 -110 0
-30 4 -41 15 -41 11 0 15 12 15 45 0 50 19 63 21 15 2 -49 3 -53 15 -57 7 -2
14 21 18 64 12 121 17 142 32 136 11 -4 14 -29 14 -105 0 -73 3 -99 12 -96 8
3 11 33 11 94 -1 66 3 93 14 106 18 20 10 38 -15 35 -9 -1 -29 -3 -44 -5z"/>
<path d="M2876 1882 c-2 -4 -6 -57 -7 -117 -2 -77 1 -110 9 -113 8 -2 12 10
12 39 0 32 6 47 25 65 32 29 34 85 5 114 -21 21 -36 25 -44 12z m39 -43 c9
-14 -3 -59 -15 -59 -6 0 -10 16 -10 35 0 34 12 46 25 24z"/>
<path d="M2971 1877 c-7 -9 -12 -55 -14 -110 -2 -79 1 -99 15 -113 38 -38 59
7 57 120 -1 33 -4 72 -8 86 -8 29 -33 37 -50 17z m34 -112 c0 -50 -4 -80 -12
-82 -7 -3 -12 16 -15 54 -4 78 1 115 15 110 8 -2 12 -31 12 -82z"/>
<path d="M3104 1877 c-2 -7 -3 -62 -2 -123 3 -103 4 -109 23 -106 11 2 24 8
29 12 12 11 17 148 8 185 -9 31 -49 54 -58 32z m40 -43 c3 -9 6 -40 6 -69 0
-57 -7 -85 -21 -85 -5 0 -9 38 -9 85 0 79 10 107 24 69z"/>
<path d="M3190 1856 c-9 -27 -8 -42 3 -69 8 -19 20 -38 26 -41 15 -10 14 -69
-1 -64 -7 3 -15 15 -18 29 -4 15 -8 20 -13 12 -10 -16 1 -59 19 -74 24 -19 44
7 44 57 0 31 -8 56 -26 84 -14 21 -23 44 -19 49 10 17 22 13 30 -11 7 -22 8
-22 12 5 9 58 -39 77 -57 23z"/>
<path d="M3416 1883 c-3 -4 -6 -57 -6 -120 l0 -113 30 0 c20 0 30 5 30 15 0 8
-9 15 -20 15 -16 0 -20 7 -20 34 0 26 5 36 20 41 11 3 20 11 20 17 0 5 -9 12
-20 15 -14 4 -20 14 -20 33 0 22 6 29 26 34 45 12 54 -7 54 -110 0 -56 4 -94
10 -94 6 0 10 40 10 100 0 60 4 100 10 100 6 0 10 7 10 15 0 14 -29 21 -55 15
-14 -3 -26 -3 -52 3 -11 3 -24 3 -27 0z"/>
<path d="M3833 1879 c-9 -9 -13 -48 -13 -121 0 -89 3 -110 16 -115 29 -11 39
16 42 110 3 78 1 96 -15 115 -14 18 -20 21 -30 11z m25 -120 c-2 -41 -7 -74
-13 -74 -11 0 -20 129 -10 153 13 35 26 -9 23 -79z"/>
<path d="M3912 1878 c-8 -8 -12 -49 -12 -120 0 -89 3 -110 16 -115 30 -11 39
15 39 117 0 76 -4 103 -15 115 -12 12 -18 13 -28 3z m18 -114 c0 -54 -4 -83
-10 -79 -11 7 -14 148 -3 158 12 13 13 7 13 -79z"/>
<path d="M4263 1878 c-19 -23 -25 -59 -13 -73 9 -11 9 -22 -1 -49 -16 -43 -2
-109 23 -114 23 -4 46 68 31 101 -6 12 -8 45 -6 73 4 36 1 53 -10 62 -11 10
-16 10 -24 0z m22 -58 c0 -7 -6 -15 -12 -17 -8 -3 -13 4 -13 17 0 13 5 20 13
18 6 -3 12 -11 12 -18z m0 -105 c0 -16 -6 -30 -12 -32 -9 -3 -13 7 -13 32 0
25 4 35 13 33 6 -3 12 -17 12 -33z"/>
<path d="M2241 1765 c-1 -96 1 -115 14 -115 11 0 14 10 11 40 -4 41 7 62 18
34 3 -9 6 -29 6 -45 0 -19 5 -29 15 -29 12 0 15 19 15 115 0 70 -4 115 -10
115 -5 0 -10 -23 -10 -51 0 -61 -16 -57 -26 6 -4 27 -12 45 -19 45 -10 0 -14
-28 -14 -115z"/>
<path d="M3050 1765 c0 -70 4 -115 10 -115 6 0 10 45 10 115 0 70 -4 115 -10
115 -6 0 -10 -45 -10 -115z"/>
<path d="M3312 1765 c-1 -72 2 -115 8 -115 5 0 10 23 10 52 0 62 18 55 27 -11
4 -25 11 -41 19 -41 11 0 14 24 14 115 0 70 -4 115 -10 115 -5 0 -10 -18 -10
-39 0 -56 -17 -60 -25 -6 -4 25 -12 45 -19 45 -7 0 -12 -37 -14 -115z"/>
<path d="M3697 1874 c-4 -4 -7 -19 -7 -33 0 -23 1 -24 14 -6 11 16 13 7 13
-68 1 -49 -3 -84 -8 -81 -5 3 -9 13 -9 22 0 13 -2 14 -9 3 -10 -15 0 -63 15
-68 23 -7 37 17 36 64 -2 132 -7 168 -22 171 -9 1 -19 0 -23 -4z"/>
<path d="M4201 1836 c-14 -58 -14 -131 1 -195 15 -64 29 -67 16 -3 -5 26 -7
91 -4 145 3 53 4 97 2 97 -2 0 -9 -20 -15 -44z"/>
<path d="M4320 1819 c0 -56 2 -60 20 -54 18 6 20 2 20 -39 0 -49 -13 -61 -25
-23 -7 21 -8 21 -12 -7 -3 -18 1 -35 12 -45 15 -15 17 -14 31 3 26 35 22 123
-7 148 -25 21 -25 48 1 48 11 0 20 7 20 15 0 10 -10 15 -30 15 l-30 0 0 -61z"/>
<path d="M4485 1735 c0 -80 3 -145 6 -145 16 0 25 178 13 253 -13 73 -19 35
-19 -108z"/>
<path d="M7775 1861 c-9 -16 43 -42 70 -35 15 4 25 2 25 -4 0 -6 -8 -12 -17
-14 -11 -3 -5 -6 15 -9 22 -4 32 -2 32 8 0 13 12 17 39 14 7 -2 11 4 9 11 -3
7 -13 12 -23 10 -10 -2 -21 1 -25 8 -8 13 -117 23 -125 11z"/>
<path d="M2797 1815 c-7 -46 -18 -197 -13 -175 11 41 28 189 24 201 -3 8 -8
-4 -11 -26z"/>
<path d="M4020 1804 c-13 -33 -13 -120 0 -145 24 -44 49 -17 56 61 8 85 -33
146 -56 84z m40 -69 c0 -42 -3 -55 -15 -55 -12 0 -15 13 -15 55 0 42 3 55 15
55 12 0 15 -13 15 -55z"/>
<path d="M4095 1820 c-4 -6 -1 -17 5 -26 10 -11 10 -27 0 -73 -13 -61 -9 -81
15 -81 22 0 29 20 12 33 -14 11 -14 18 -1 70 9 32 13 65 10 73 -6 16 -32 19
-41 4z"/>
<path d="M4407 1823 c-4 -3 -7 -42 -7 -85 0 -67 3 -80 20 -90 11 -7 20 -16 20
-20 0 -5 -9 -8 -20 -8 -23 0 -26 -13 -7 -28 8 -7 18 -7 27 -2 21 13 28 219 8
231 -16 10 -32 11 -41 2z m33 -88 c0 -30 -4 -55 -10 -55 -5 0 -10 25 -10 55 0
30 5 55 10 55 6 0 10 -25 10 -55z"/>
<path d="M3610 1799 c0 -11 5 -17 10 -14 6 3 10 13 10 21 0 8 -4 14 -10 14 -5
0 -10 -9 -10 -21z"/>
<path d="M7757 1813 c-4 -3 -7 -11 -7 -17 0 -6 5 -5 12 2 6 6 9 14 7 17 -3 3
-9 2 -12 -2z"/>
<path d="M3610 1665 c0 -8 5 -15 10 -15 6 0 10 7 10 15 0 8 -4 15 -10 15 -5 0
-10 -7 -10 -15z"/>
<path d="M3770 1665 c0 -8 5 -15 10 -15 6 0 10 7 10 15 0 8 -4 15 -10 15 -5 0
-10 -7 -10 -15z"/>
<path d="M8027 1541 c-17 -17 -16 -18 12 -19 24 0 28 3 24 19 -6 23 -13 23
-36 0z"/>
<path d="M7691 1534 c0 -11 3 -14 6 -6 3 7 2 16 -1 19 -3 4 -6 -2 -5 -13z"/>
<path d="M7871 1534 c0 -11 3 -14 6 -6 3 7 2 16 -1 19 -3 4 -6 -2 -5 -13z"/>
<path d="M7921 1534 c0 -11 3 -14 6 -6 3 7 2 16 -1 19 -3 4 -6 -2 -5 -13z"/>
<path d="M7965 1541 c-3 -5 -1 -12 5 -16 5 -3 10 1 10 9 0 18 -6 21 -15 7z"/>
<path d="M8408 1543 c7 -3 16 -2 19 1 4 3 -2 6 -13 5 -11 0 -14 -3 -6 -6z"/>
<path d="M8358 1533 c6 -2 18 -2 25 0 6 3 1 5 -13 5 -14 0 -19 -2 -12 -5z"/>
<path d="M2260 1410 l0 -70 45 0 c25 0 45 5 45 10 0 6 -16 10 -35 10 -28 0
-35 4 -35 20 0 16 7 20 30 20 17 0 30 5 30 10 0 6 -14 10 -31 10 -44 0 -36 34
9 38 45 4 30 22 -19 22 l-39 0 0 -70z"/>
<path d="M2380 1474 c0 -3 8 -19 17 -35 16 -28 16 -31 -1 -60 -22 -37 -12 -53
14 -20 l18 24 13 -21 c24 -38 41 -26 18 13 -20 33 -20 35 -3 64 22 37 9 55
-15 22 l-19 -24 -11 21 c-11 20 -31 30 -31 16z"/>
<path d="M2507 1463 c-4 -15 -3 -90 2 -115 3 -20 21 -5 21 17 0 19 5 25 23 25
29 0 47 18 47 47 0 39 -83 63 -93 26z m62 -12 c19 -12 6 -41 -18 -41 -21 0
-31 17 -23 38 5 14 21 15 41 3z"/>
<path d="M2641 1466 c-7 -8 -15 -30 -18 -49 -4 -29 -1 -40 21 -62 28 -28 60
-27 84 3 18 24 15 86 -6 105 -23 21 -65 22 -81 3z m67 -18 c17 -17 15 -64 -4
-82 -33 -34 -79 27 -54 73 12 23 40 27 58 9z"/>
<path d="M2777 1473 c-11 -10 -8 -133 2 -133 5 0 11 10 13 23 3 23 47 39 49
18 1 -6 2 -16 3 -23 0 -6 6 -13 12 -15 8 -3 12 15 11 57 0 48 -4 63 -18 71
-20 10 -63 12 -72 2z m68 -38 c0 -22 -31 -33 -47 -17 -17 17 -1 44 24 40 15
-2 23 -10 23 -23z"/>
<path d="M2900 1471 c0 -5 9 -11 20 -14 17 -4 20 -14 20 -61 0 -31 5 -56 10
-56 6 0 10 25 10 56 0 47 3 57 20 61 11 3 17 9 14 14 -7 12 -94 12 -94 0z"/>
<path d="M3077 1473 c-4 -3 -7 -35 -7 -70 0 -49 3 -63 15 -63 9 0 15 9 15 24
0 19 6 25 28 28 21 2 28 9 30 31 2 16 -2 35 -9 43 -12 14 -60 19 -72 7z m60
-24 c16 -16 5 -39 -17 -39 -20 0 -30 17 -22 38 5 15 24 16 39 1z"/>
<path d="M3197 1453 c-12 -65 -8 -113 8 -113 9 0 15 9 15 26 0 21 4 25 23 22
14 -2 23 -11 25 -25 3 -22 13 -29 25 -17 3 3 1 19 -5 35 -7 21 -7 33 1 42 18
23 -14 57 -54 57 -29 0 -34 -4 -38 -27z m68 -18 c0 -23 -34 -33 -45 -14 -13
20 1 40 24 37 13 -2 21 -10 21 -23z"/>
<path d="M3341 1466 c-7 -8 -14 -29 -17 -48 -11 -64 59 -114 99 -70 25 28 26
92 1 116 -19 20 -68 21 -83 2z m67 -18 c14 -14 16 -57 3 -76 -4 -8 -19 -12
-32 -10 -19 2 -25 10 -27 36 -2 19 -1 40 2 48 7 17 38 18 54 2z"/>
<path d="M3476 1464 c-3 -9 -6 -40 -6 -70 0 -50 2 -54 27 -60 16 -4 37 -2 52
7 21 12 27 23 29 61 3 39 -1 49 -20 62 -29 21 -74 21 -82 0z m78 -26 c15 -25
-4 -72 -31 -76 -18 -3 -21 3 -25 37 -2 22 -2 45 0 51 6 16 43 8 56 -12z"/>
<path d="M3610 1421 c0 -41 5 -65 16 -75 18 -19 55 -21 72 -4 14 14 16 124 2
133 -6 4 -10 -11 -10 -39 0 -57 -8 -76 -30 -76 -22 0 -30 19 -30 76 0 24 -4
44 -10 44 -6 0 -10 -26 -10 -59z"/>
<path d="M3759 1470 c-22 -13 -33 -74 -18 -102 23 -44 57 -50 89 -18 25 25 16
49 -9 26 -26 -23 -50 -20 -57 8 -14 57 20 94 55 62 17 -15 21 -16 21 -5 0 34
-45 50 -81 29z"/>
<path d="M3870 1470 c0 -5 7 -10 15 -10 10 0 15 -16 17 -62 4 -78 22 -79 26
-2 2 46 7 57 22 61 11 3 17 9 14 14 -7 12 -94 11 -94 -1z"/>
<path d="M4335 1049 c272 -12 882 -29 1435 -39 530 -11 1746 2 1763 19 29 29
-70 31 -1717 29 -982 0 -1587 -4 -1481 -9z"/>
</g>
</svg>
